<svg width="131" height="42" viewBox="0 0 131 42" fill="none" xmlns="http://www.w3.org/2000/svg">
<path d="M3 24.5479L7.7808 29.22C9.03969 30.4503 11.055 30.4358 12.296 29.1875L21.3389 20.0917C22.6494 18.7736 22.5682 16.6209 21.1621 15.4052L18.1117 12.7679C16.9304 11.7465 15.1851 11.7247 13.9786 12.7162L10.7493 15.3699C9.26879 16.5866 9.17892 18.8216 10.557 20.1532L19.9729 29.2518C21.231 30.4675 23.2314 30.4503 24.4685 29.2132L29.1338 24.5479" stroke="#7246C9" stroke-width="5.61156" stroke-linecap="round" stroke-linejoin="round"/>
<path d="M63.0876 11.7227C63.1679 11.6023 63.2983 11.5421 63.4789 11.5421H65.9467C66.1473 11.5421 66.2476 11.6424 66.2476 11.843V32.699C66.2476 32.8997 66.1473 33 65.9467 33H61.4324C61.2317 33 61.1314 32.8997 61.1314 32.699V23.8209C61.1314 23.6805 61.0913 23.6003 61.011 23.5802C60.9308 23.5401 60.8505 23.5702 60.7703 23.6705L55.323 31.6156C55.2629 31.6959 55.1926 31.736 55.1124 31.736C55.0321 31.736 54.9619 31.6959 54.9017 31.6156L49.4846 23.7006C49.4244 23.6203 49.3642 23.5802 49.304 23.5802C49.1836 23.5802 49.1234 23.6604 49.1234 23.8209V32.699C49.1234 32.8997 49.0231 33 48.8225 33H44.3082C44.1076 33 44.0072 32.8997 44.0072 32.699V11.843C44.0072 11.6424 44.1076 11.5421 44.3082 11.5421H46.776C46.9566 11.5421 47.087 11.6023 47.1672 11.7227L54.9017 23.6103C54.9619 23.6905 55.0321 23.7307 55.1124 23.7307C55.1926 23.7307 55.2629 23.6905 55.323 23.6103L63.0876 11.7227ZM72.1342 15.1535C71.3918 15.1535 70.7498 14.8927 70.2081 14.371C69.6864 13.8293 69.4256 13.1873 69.4256 12.4449C69.4256 11.7026 69.6864 11.0706 70.2081 10.5489C70.7498 10.0072 71.3918 9.73637 72.1342 9.73637C72.8966 9.73637 73.5386 9.9972 74.0603 10.5188C74.5819 11.0405 74.8427 11.6825 74.8427 12.4449C74.8427 13.1873 74.5719 13.8293 74.0302 14.371C73.5085 14.8927 72.8765 15.1535 72.1342 15.1535ZM69.7265 17.3806C69.7265 17.2201 69.8068 17.1398 69.9673 17.1398H74.301C74.4615 17.1398 74.5418 17.2201 74.5418 17.3806V32.7592C74.5418 32.9197 74.4615 33 74.301 33H69.9673C69.8068 33 69.7265 32.9197 69.7265 32.7592V17.3806ZM97.6828 17.0495C99.6891 17.0495 101.174 17.6916 102.137 18.9756C103.12 20.2597 103.652 22.0052 103.732 24.2122V32.7592C103.732 32.9197 103.652 33 103.491 33H99.1574C98.9969 33 98.9167 32.9197 98.9167 32.7592V24.2122C98.9167 23.0686 98.686 22.2159 98.2245 21.6541C97.7831 21.0923 97.0909 20.8114 96.1479 20.8114C95.225 20.8114 94.4927 21.1625 93.951 21.8648C93.4093 22.5469 93.1384 23.3695 93.1384 24.3326V32.7592C93.1384 32.9197 93.0581 33 92.8976 33H88.5639C88.4034 33 88.3232 32.9197 88.3232 32.7592V24.2122C88.3232 23.0686 88.0924 22.2159 87.631 21.6541C87.1896 21.0923 86.4974 20.8114 85.5544 20.8114C84.6315 20.8114 83.8992 21.1625 83.3574 21.8648C82.8157 22.5469 82.5449 23.3695 82.5449 24.3326V32.7592C82.5449 32.9197 82.4646 33 82.3041 33H77.9704C77.8099 33 77.7296 32.9197 77.7296 32.7592V17.3806C77.7296 17.2201 77.8099 17.1398 77.9704 17.1398H82.3041C82.4646 17.1398 82.5449 17.2201 82.5449 17.3806V19.1261C82.5449 19.2264 82.575 19.2966 82.6352 19.3368C82.6953 19.3568 82.7555 19.3267 82.8157 19.2465C83.3173 18.5844 83.9293 18.0527 84.6515 17.6514C85.3939 17.2502 86.2065 17.0495 87.0893 17.0495C89.5571 17.0495 91.2825 18.0728 92.2656 20.1192C92.3058 20.1995 92.3459 20.2496 92.386 20.2697C92.4462 20.2898 92.4964 20.2697 92.5365 20.2095C92.998 19.3267 93.6901 18.5844 94.6131 17.9825C95.536 17.3605 96.5592 17.0495 97.6828 17.0495ZM109.316 15.1535C108.574 15.1535 107.932 14.8927 107.39 14.371C106.869 13.8293 106.608 13.1873 106.608 12.4449C106.608 11.7026 106.869 11.0706 107.39 10.5489C107.932 10.0072 108.574 9.73637 109.316 9.73637C110.079 9.73637 110.721 9.9972 111.242 10.5188C111.764 11.0405 112.025 11.6825 112.025 12.4449C112.025 13.1873 111.754 13.8293 111.212 14.371C110.691 14.8927 110.059 15.1535 109.316 15.1535ZM106.909 17.3806C106.909 17.2201 106.989 17.1398 107.149 17.1398H111.483C111.644 17.1398 111.724 17.2201 111.724 17.3806V32.7592C111.724 32.9197 111.644 33 111.483 33H107.149C106.989 33 106.909 32.9197 106.909 32.7592V17.3806ZM129.207 27.6731C129.267 27.6932 129.307 27.7434 129.327 27.8236C129.347 27.8838 129.347 27.944 129.327 28.0042C129.207 28.7666 128.866 29.539 128.304 30.3215C127.742 31.104 126.94 31.7661 125.897 32.3078C124.853 32.8295 123.619 33.0903 122.195 33.0903C120.65 33.0903 119.276 32.7392 118.072 32.037C116.888 31.3147 115.965 30.3416 115.303 29.1177C114.641 27.8938 114.31 26.5396 114.31 25.0549C114.31 23.5702 114.641 22.2259 115.303 21.0221C115.965 19.7982 116.888 18.8352 118.072 18.1329C119.276 17.4107 120.65 17.0495 122.195 17.0495C123.639 17.0495 124.873 17.3204 125.897 17.8621C126.94 18.3837 127.742 19.0358 128.304 19.8183C128.886 20.6008 129.227 21.3732 129.327 22.1356V22.2259C129.327 22.3864 129.287 22.4767 129.207 22.4968L125.174 23.0385H125.114C124.974 23.0385 124.883 22.9783 124.843 22.8579C124.683 22.2761 124.382 21.7945 123.94 21.4133C123.519 21.0121 122.967 20.8114 122.285 20.8114C121.282 20.8114 120.499 21.2027 119.938 21.9851C119.396 22.7676 119.125 23.7909 119.125 25.0549C119.125 26.3389 119.396 27.3722 119.938 28.1547C120.499 28.9371 121.282 29.3284 122.285 29.3284C122.967 29.3284 123.519 29.1378 123.94 28.7566C124.362 28.3553 124.663 27.8738 124.843 27.312C124.883 27.1716 124.994 27.1114 125.174 27.1314L129.207 27.6731Z" fill="white"/>
</svg>
