<svg width="245" height="45" viewBox="0 0 245 45" fill="none" xmlns="http://www.w3.org/2000/svg">
<g filter="url(#filter0_d_2814_718)">
<path d="M7 26.5479L11.7808 31.22C13.0397 32.4503 15.055 32.4358 16.296 31.1875L25.3389 22.0917C26.6494 20.7736 26.5682 18.6209 25.1621 17.4052L22.1117 14.7679C20.9304 13.7465 19.1851 13.7247 17.9786 14.7162L14.7493 17.3699C13.2688 18.5866 13.1789 20.8216 14.557 22.1532L23.9729 31.2518C25.231 32.4675 27.2314 32.4503 28.4685 31.2132L33.1338 26.5479" stroke="#6F5CE6" stroke-width="5.61156" stroke-linecap="round" stroke-linejoin="round"/>
<path d="M61.353 11.7227C61.4433 11.5722 61.5938 11.5421 61.7443 11.5421H64.2121C64.3927 11.5421 64.513 11.6625 64.513 11.843V32.699C64.513 32.8796 64.3927 33 64.2121 33H59.6978C59.5172 33 59.3969 32.8796 59.3969 32.699V23.8209C59.3969 23.5501 59.1862 23.4598 59.0357 23.6705L53.5885 31.6156C53.4681 31.7962 53.2875 31.7962 53.1671 31.6156L47.75 23.7006C47.5995 23.4899 47.3889 23.5501 47.3889 23.8209V32.699C47.3889 32.8796 47.2685 33 47.0879 33H42.5736C42.393 33 42.2727 32.8796 42.2727 32.699V11.843C42.2727 11.6625 42.393 11.5421 42.5736 11.5421H45.0414C45.1919 11.5421 45.3424 11.5722 45.4327 11.7227L53.1671 23.6103C53.2875 23.7909 53.4681 23.7909 53.5885 23.6103L61.353 11.7227ZM70.3996 15.1535C68.9249 15.1535 67.691 13.9196 67.691 12.4449C67.691 10.9402 68.9249 9.73637 70.3996 9.73637C71.9044 9.73637 73.1082 10.9402 73.1082 12.4449C73.1082 13.9196 71.9044 15.1535 70.3996 15.1535ZM67.992 17.3806C67.992 17.2301 68.0823 17.1398 68.2327 17.1398H72.5664C72.7169 17.1398 72.8072 17.2301 72.8072 17.3806V32.7592C72.8072 32.9097 72.7169 33 72.5664 33H68.2327C68.0823 33 67.992 32.9097 67.992 32.7592V17.3806ZM95.9482 17.0495C100.162 17.0495 101.847 20.0891 101.997 24.2122V32.7592C101.997 32.9097 101.907 33 101.757 33H97.4229C97.2724 33 97.1821 32.9097 97.1821 32.7592V24.2122C97.1821 21.9249 96.3093 20.8114 94.4134 20.8114C92.4873 20.8114 91.4038 22.4968 91.4038 24.3326V32.7592C91.4038 32.9097 91.3135 33 91.1631 33H86.8293C86.6789 33 86.5886 32.9097 86.5886 32.7592V24.2122C86.5886 21.9249 85.7158 20.8114 83.8198 20.8114C81.8937 20.8114 80.8103 22.4968 80.8103 24.3326V32.7592C80.8103 32.9097 80.72 33 80.5695 33H76.2358C76.0853 33 75.9951 32.9097 75.9951 32.7592V17.3806C75.9951 17.2301 76.0853 17.1398 76.2358 17.1398H80.5695C80.72 17.1398 80.8103 17.2301 80.8103 17.3806V19.1261C80.8103 19.3368 80.9608 19.427 81.0812 19.2465C82.0141 18.0126 83.4888 17.0495 85.3547 17.0495C87.973 17.0495 89.6282 18.2232 90.5311 20.1192C90.6213 20.2998 90.7417 20.3299 90.8019 20.2095C91.6747 18.5543 93.6008 17.0495 95.9482 17.0495ZM107.582 15.1535C106.107 15.1535 104.873 13.9196 104.873 12.4449C104.873 10.9402 106.107 9.73637 107.582 9.73637C109.087 9.73637 110.29 10.9402 110.29 12.4449C110.29 13.9196 109.087 15.1535 107.582 15.1535ZM105.174 17.3806C105.174 17.2301 105.264 17.1398 105.415 17.1398H109.749C109.899 17.1398 109.989 17.2301 109.989 17.3806V32.7592C109.989 32.9097 109.899 33 109.749 33H105.415C105.264 33 105.174 32.9097 105.174 32.7592V17.3806ZM127.472 27.6731C127.593 27.7032 127.623 27.8838 127.593 28.0042C127.292 30.0507 125.065 33.0903 120.46 33.0903C115.735 33.0903 112.575 29.509 112.575 25.0549C112.575 20.6008 115.735 17.0495 120.46 17.0495C125.065 17.0495 127.322 20.059 127.593 22.1356C127.623 22.256 127.593 22.4667 127.472 22.4968L123.44 23.0385C123.259 23.0686 123.139 22.9783 123.109 22.8579C122.808 21.8046 122.025 20.8114 120.551 20.8114C118.474 20.8114 117.391 22.587 117.391 25.0549C117.391 27.5227 118.474 29.3284 120.551 29.3284C122.025 29.3284 122.808 28.275 123.109 27.312C123.169 27.1314 123.259 27.1013 123.44 27.1314L127.472 27.6731ZM152.583 11.7528C152.643 11.6023 152.794 11.5421 152.944 11.5421H154.991C155.141 11.5421 155.292 11.6023 155.352 11.7528L164.892 32.6389C164.982 32.8495 164.892 33 164.681 33H160.378C160.227 33 160.077 32.9398 160.016 32.7893L158.662 29.9303C158.602 29.7798 158.482 29.7196 158.331 29.7196H149.573C149.423 29.7196 149.272 29.7798 149.212 29.9303L147.858 32.7893C147.798 32.9398 147.677 33 147.527 33H143.223C143.013 33 142.922 32.8495 143.013 32.6389L152.583 11.7528ZM151.469 24.8442C151.379 25.0549 151.469 25.2053 151.68 25.2053H156.224C156.435 25.2053 156.525 25.0549 156.435 24.8442L154.178 19.7581C154.088 19.5474 153.847 19.5474 153.757 19.7581L151.469 24.8442ZM172.173 33.0903C167.659 33.0903 165.402 29.0575 165.402 25.0549C165.402 21.0522 167.659 17.0495 172.173 17.0495C173.859 17.0495 175.153 17.8621 176.056 18.8853C176.206 19.0659 176.357 19.0057 176.357 18.795V10.579C176.357 10.4286 176.447 10.3383 176.597 10.3383H180.931C181.082 10.3383 181.172 10.4286 181.172 10.579V32.7592C181.172 32.9097 181.082 33 180.931 33H176.597C176.447 33 176.357 32.9097 176.357 32.7592V31.3448C176.357 31.1341 176.206 31.0739 176.056 31.2545C175.153 32.2777 173.859 33.0903 172.173 33.0903ZM173.498 20.8114C170.909 20.8114 170.217 23.3394 170.217 25.0549C170.217 26.8004 170.909 29.3284 173.498 29.3284C174.822 29.3284 175.664 28.6663 176.357 27.8537V22.2861C175.664 21.4735 174.822 20.8114 173.498 20.8114ZM204.291 17.0495C208.505 17.0495 210.19 20.0891 210.34 24.2122V32.7592C210.34 32.9097 210.25 33 210.1 33H205.766C205.615 33 205.525 32.9097 205.525 32.7592V24.2122C205.525 21.9249 204.652 20.8114 202.756 20.8114C200.83 20.8114 199.747 22.4968 199.747 24.3326V32.7592C199.747 32.9097 199.657 33 199.506 33H195.172C195.022 33 194.932 32.9097 194.932 32.7592V24.2122C194.932 21.9249 194.059 20.8114 192.163 20.8114C190.237 20.8114 189.153 22.4968 189.153 24.3326V32.7592C189.153 32.9097 189.063 33 188.913 33H184.579C184.428 33 184.338 32.9097 184.338 32.7592V17.3806C184.338 17.2301 184.428 17.1398 184.579 17.1398H188.913C189.063 17.1398 189.153 17.2301 189.153 17.3806V19.1261C189.153 19.3368 189.304 19.427 189.424 19.2465C190.357 18.0126 191.832 17.0495 193.698 17.0495C196.316 17.0495 197.971 18.2232 198.874 20.1192C198.964 20.2998 199.085 20.3299 199.145 20.2095C200.018 18.5543 201.944 17.0495 204.291 17.0495ZM215.925 15.1535C214.45 15.1535 213.216 13.9196 213.216 12.4449C213.216 10.9402 214.45 9.73637 215.925 9.73637C217.43 9.73637 218.633 10.9402 218.633 12.4449C218.633 13.9196 217.43 15.1535 215.925 15.1535ZM213.517 17.3806C213.517 17.2301 213.607 17.1398 213.758 17.1398H218.092C218.242 17.1398 218.332 17.2301 218.332 17.3806V32.7592C218.332 32.9097 218.242 33 218.092 33H213.758C213.607 33 213.517 32.9097 213.517 32.7592V17.3806ZM221.754 33C221.604 33 221.513 32.9097 221.513 32.7592V17.3806C221.513 17.2301 221.604 17.1398 221.754 17.1398H226.088C226.238 17.1398 226.328 17.2301 226.328 17.3806V19.2164C226.328 19.427 226.479 19.4872 226.599 19.3067C227.623 18.0728 229.549 17.0495 231.475 17.0495C235.086 17.0495 237.524 18.8853 237.524 23.9112V32.7592C237.524 32.9097 237.434 33 237.283 33H232.949C232.799 33 232.709 32.9097 232.709 32.7592V24.2122C232.709 21.8648 231.535 20.8114 229.639 20.8114C227.924 20.8114 226.629 22.1657 226.328 23.9112V32.7592C226.328 32.9097 226.238 33 226.088 33H221.754Z" fill="white"/>
<path d="M61.353 11.7227L61.7682 11.9938L61.7733 11.9859L61.7782 11.9778L61.353 11.7227ZM59.0357 23.6705L58.6322 23.3822L58.6268 23.3901L59.0357 23.6705ZM53.5885 31.6156L53.1795 31.3352L53.1759 31.3406L53.5885 31.6156ZM53.1671 31.6156L53.5797 31.3406L53.5763 31.3356L53.1671 31.6156ZM47.75 23.7006L48.1593 23.4205L48.1535 23.4124L47.75 23.7006ZM45.4327 11.7227L45.0075 11.9778L45.0121 11.9855L45.0171 11.9931L45.4327 11.7227ZM53.1671 23.6103L52.7515 23.8807L52.7546 23.8853L53.1671 23.6103ZM53.5885 23.6103L54.001 23.8853L54.0036 23.8814L53.5885 23.6103ZM61.7782 11.9778C61.7726 11.9871 61.7621 12.0007 61.7461 12.0139C61.7304 12.0268 61.7155 12.0343 61.7058 12.0381C61.697 12.0415 61.6944 12.0411 61.7016 12.0401C61.709 12.0391 61.7224 12.0379 61.7443 12.0379V11.0463C61.5428 11.0463 61.1568 11.086 60.9279 11.4676L61.7782 11.9778ZM61.7443 12.0379H64.2121V11.0463H61.7443V12.0379ZM64.2121 12.0379C64.1897 12.0379 64.1325 12.0283 64.0797 11.9755C64.0268 11.9226 64.0172 11.8654 64.0172 11.843H65.0089C65.0089 11.6401 64.9391 11.4324 64.7809 11.2742C64.6227 11.1161 64.4151 11.0463 64.2121 11.0463V12.0379ZM64.0172 11.843V32.699H65.0089V11.843H64.0172ZM64.0172 32.699C64.0172 32.6767 64.0268 32.6195 64.0797 32.5666C64.1325 32.5138 64.1897 32.5042 64.2121 32.5042V33.4958C64.4151 33.4958 64.6227 33.426 64.7809 33.2678C64.9391 33.1097 65.0089 32.902 65.0089 32.699H64.0172ZM64.2121 32.5042H59.6978V33.4958H64.2121V32.5042ZM59.6978 32.5042C59.7202 32.5042 59.7774 32.5138 59.8302 32.5666C59.8831 32.6195 59.8927 32.6767 59.8927 32.699H58.901C58.901 32.902 58.9708 33.1097 59.129 33.2678C59.2872 33.426 59.4948 33.4958 59.6978 33.4958V32.5042ZM59.8927 32.699V23.8209H58.901V32.699H59.8927ZM59.8927 23.8209C59.8927 23.5839 59.7964 23.2476 59.4651 23.1082C59.096 22.9528 58.781 23.1741 58.6322 23.3823L59.4392 23.9587C59.4371 23.9615 59.4103 23.9982 59.3452 24.0252C59.2739 24.0547 59.1764 24.0626 59.0803 24.0221C58.892 23.9428 58.901 23.7871 58.901 23.8209H59.8927ZM58.6268 23.3901L53.1795 31.3352L53.9974 31.896L59.4447 23.9509L58.6268 23.3901ZM53.1759 31.3406C53.1768 31.3392 53.1904 31.3192 53.224 31.298C53.2596 31.2755 53.3128 31.2552 53.3778 31.2552C53.4428 31.2552 53.496 31.2755 53.5316 31.298C53.5652 31.3192 53.5788 31.3392 53.5797 31.3406L52.7546 31.8907C52.8748 32.071 53.0865 32.2469 53.3778 32.2469C53.6691 32.2469 53.8808 32.071 54.001 31.8907L53.1759 31.3406ZM53.5763 31.3356L48.1592 23.4205L47.3408 23.9806L52.758 31.8957L53.5763 31.3356ZM48.1535 23.4124C48.0191 23.2242 47.7303 22.9916 47.3637 23.1074C46.9921 23.2247 46.893 23.5871 46.893 23.8209H47.8847C47.8847 23.7839 47.8909 23.9808 47.6623 24.053C47.5584 24.0858 47.468 24.0648 47.4145 24.0389C47.3887 24.0265 47.3713 24.0131 47.3612 24.0041C47.351 23.9951 47.3467 23.989 47.3465 23.9888L48.1535 23.4124ZM46.893 23.8209V32.699H47.8847V23.8209H46.893ZM46.893 32.699C46.893 32.6767 46.9026 32.6195 46.9555 32.5666C47.0083 32.5138 47.0655 32.5042 47.0879 32.5042V33.4958C47.2909 33.4958 47.4985 33.426 47.6567 33.2678C47.8149 33.1097 47.8847 32.902 47.8847 32.699H46.893ZM47.0879 32.5042H42.5736V33.4958H47.0879V32.5042ZM42.5736 32.5042C42.596 32.5042 42.6532 32.5138 42.706 32.5666C42.7589 32.6195 42.7685 32.6767 42.7685 32.699H41.7768C41.7768 32.902 41.8466 33.1097 42.0048 33.2678C42.163 33.426 42.3706 33.4958 42.5736 33.4958V32.5042ZM42.7685 32.699V11.843H41.7768V32.699H42.7685ZM42.7685 11.843C42.7685 11.8654 42.7589 11.9226 42.706 11.9755C42.6532 12.0283 42.596 12.0379 42.5736 12.0379V11.0463C42.3706 11.0463 42.163 11.1161 42.0048 11.2742C41.8466 11.4324 41.7768 11.6401 41.7768 11.843H42.7685ZM42.5736 12.0379H45.0414V11.0463H42.5736V12.0379ZM45.0414 12.0379C45.0633 12.0379 45.0767 12.0391 45.0841 12.0401C45.0913 12.0411 45.0887 12.0415 45.0799 12.0381C45.0702 12.0343 45.0553 12.0268 45.0396 12.0139C45.0236 12.0007 45.0131 11.9871 45.0075 11.9778L45.8578 11.4676C45.6289 11.086 45.2429 11.0463 45.0414 11.0463V12.0379ZM45.0171 11.9931L52.7515 23.8807L53.5827 23.3399L45.8483 11.4523L45.0171 11.9931ZM52.7546 23.8853C52.8748 24.0657 53.0865 24.2415 53.3778 24.2415C53.6691 24.2415 53.8808 24.0657 54.001 23.8853L53.1759 23.3352C53.1768 23.3339 53.1904 23.3139 53.224 23.2926C53.2596 23.2701 53.3128 23.2499 53.3778 23.2499C53.4428 23.2499 53.496 23.2701 53.5316 23.2926C53.5652 23.3139 53.5788 23.3339 53.5797 23.3352L52.7546 23.8853ZM54.0036 23.8814L61.7682 11.9938L60.9379 11.4515L53.1733 23.3391L54.0036 23.8814ZM70.3996 14.6577C69.1988 14.6577 68.1869 13.6458 68.1869 12.4449H67.1952C67.1952 14.1935 68.6511 15.6493 70.3996 15.6493V14.6577ZM68.1869 12.4449C68.1869 11.2176 69.1952 10.2322 70.3996 10.2322V9.24054C68.6547 9.24054 67.1952 10.6628 67.1952 12.4449H68.1869ZM70.3996 10.2322C71.6305 10.2322 72.6123 11.214 72.6123 12.4449H73.604C73.604 10.6663 72.1782 9.24054 70.3996 9.24054V10.2322ZM72.6123 12.4449C72.6123 13.6494 71.6269 14.6577 70.3996 14.6577V15.6493C72.1818 15.6493 73.604 14.1899 73.604 12.4449H72.6123ZM68.4878 17.3806C68.4878 17.4047 68.4786 17.4823 68.4065 17.5544C68.3345 17.6264 68.2569 17.6356 68.2327 17.6356V16.644C68.0581 16.644 67.8602 16.6983 67.7053 16.8531C67.5505 17.008 67.4961 17.2059 67.4961 17.3806H68.4878ZM68.2327 17.6356H72.5664V16.644H68.2327V17.6356ZM72.5664 17.6356C72.5423 17.6356 72.4647 17.6264 72.3927 17.5544C72.3206 17.4823 72.3114 17.4047 72.3114 17.3806H73.303C73.303 17.2059 73.2487 17.008 73.0939 16.8531C72.939 16.6983 72.7411 16.644 72.5664 16.644V17.6356ZM72.3114 17.3806V32.7592H73.303V17.3806H72.3114ZM72.3114 32.7592C72.3114 32.7351 72.3206 32.6575 72.3927 32.5854C72.4647 32.5134 72.5423 32.5042 72.5664 32.5042V33.4958C72.7411 33.4958 72.939 33.4415 73.0939 33.2867C73.2487 33.1318 73.303 32.9339 73.303 32.7592H72.3114ZM72.5664 32.5042H68.2327V33.4958H72.5664V32.5042ZM68.2327 32.5042C68.2569 32.5042 68.3345 32.5134 68.4065 32.5854C68.4786 32.6575 68.4878 32.7351 68.4878 32.7592H67.4961C67.4961 32.9339 67.5505 33.1318 67.7053 33.2867C67.8602 33.4415 68.0581 33.4958 68.2327 33.4958V32.5042ZM68.4878 32.7592V17.3806H67.4961V32.7592H68.4878ZM101.997 24.2122H102.493V24.2031L102.493 24.1941L101.997 24.2122ZM81.0812 19.2465L80.6856 18.9474L80.6768 18.9592L80.6686 18.9714L81.0812 19.2465ZM90.5311 20.1192L90.0833 20.3324L90.0876 20.341L90.5311 20.1192ZM90.8019 20.2095L90.3632 19.9782L90.3584 19.9878L90.8019 20.2095ZM95.9482 17.5454C97.9198 17.5454 99.2397 18.2478 100.101 19.3843C100.982 20.5454 101.428 22.2198 101.502 24.2303L102.493 24.1941C102.416 22.0816 101.945 20.1746 100.891 18.7852C99.8194 17.371 98.1899 16.5537 95.9482 16.5537V17.5454ZM101.502 24.2122V32.7592H102.493V24.2122H101.502ZM101.502 32.7592C101.502 32.7351 101.511 32.6575 101.583 32.5854C101.655 32.5134 101.732 32.5042 101.757 32.5042V33.4958C101.931 33.4958 102.129 33.4415 102.284 33.2867C102.439 33.1318 102.493 32.9339 102.493 32.7592H101.502ZM101.757 32.5042H97.4229V33.4958H101.757V32.5042ZM97.4229 32.5042C97.4471 32.5042 97.5246 32.5134 97.5967 32.5854C97.6687 32.6575 97.6779 32.7351 97.6779 32.7592H96.6863C96.6863 32.9339 96.7406 33.1318 96.8955 33.2867C97.0503 33.4415 97.2482 33.4958 97.4229 33.4958V32.5042ZM97.6779 32.7592V24.2122H96.6863V32.7592H97.6779ZM97.6779 24.2122C97.6779 23.0207 97.4533 22.0354 96.8947 21.3428C96.318 20.6279 95.4616 20.3156 94.4134 20.3156V21.3073C95.2611 21.3073 95.7891 21.5517 96.1228 21.9654C96.4745 22.4014 96.6863 23.1164 96.6863 24.2122H97.6779ZM94.4134 20.3156C93.2892 20.3156 92.3964 20.814 91.7965 21.5771C91.2051 22.3294 90.908 23.3229 90.908 24.3326H91.8997C91.8997 23.5064 92.1443 22.7393 92.5761 22.19C92.9994 21.6515 93.6114 21.3073 94.4134 21.3073V20.3156ZM90.908 24.3326V32.7592H91.8997V24.3326H90.908ZM90.908 32.7592C90.908 32.7351 90.9172 32.6575 90.9893 32.5854C91.0613 32.5134 91.1389 32.5042 91.1631 32.5042V33.4958C91.3377 33.4958 91.5356 33.4415 91.6905 33.2867C91.8453 33.1318 91.8997 32.9339 91.8997 32.7592H90.908ZM91.1631 32.5042H86.8293V33.4958H91.1631V32.5042ZM86.8293 32.5042C86.8535 32.5042 86.9311 32.5134 87.0031 32.5854C87.0752 32.6575 87.0844 32.7351 87.0844 32.7592H86.0928C86.0928 32.9339 86.1471 33.1318 86.3019 33.2867C86.4568 33.4415 86.6547 33.4958 86.8293 33.4958V32.5042ZM87.0844 32.7592V24.2122H86.0928V32.7592H87.0844ZM87.0844 24.2122C87.0844 23.0207 86.8598 22.0354 86.3011 21.3428C85.7245 20.6279 84.868 20.3156 83.8198 20.3156V21.3073C84.6676 21.3073 85.1955 21.5517 85.5293 21.9654C85.881 22.4014 86.0928 23.1164 86.0928 24.2122H87.0844ZM83.8198 20.3156C82.6957 20.3156 81.8029 20.814 81.203 21.5771C80.6116 22.3294 80.3145 23.3229 80.3145 24.3326H81.3061C81.3061 23.5064 81.5507 22.7393 81.9826 22.19C82.4059 21.6515 83.0179 21.3073 83.8198 21.3073V20.3156ZM80.3145 24.3326V32.7592H81.3061V24.3326H80.3145ZM80.3145 32.7592C80.3145 32.7351 80.3237 32.6575 80.3957 32.5854C80.4678 32.5134 80.5454 32.5042 80.5695 32.5042V33.4958C80.7442 33.4958 80.9421 33.4415 81.097 33.2867C81.2518 33.1318 81.3061 32.9339 81.3061 32.7592H80.3145ZM80.5695 32.5042H76.2358V33.4958H80.5695V32.5042ZM76.2358 32.5042C76.26 32.5042 76.3375 32.5134 76.4096 32.5854C76.4817 32.6575 76.4909 32.7351 76.4909 32.7592H75.4992C75.4992 32.9339 75.5536 33.1318 75.7084 33.2867C75.8632 33.4415 76.0612 33.4958 76.2358 33.4958V32.5042ZM76.4909 32.7592V17.3806H75.4992V32.7592H76.4909ZM76.4909 17.3806C76.4909 17.4047 76.4817 17.4823 76.4096 17.5544C76.3375 17.6264 76.26 17.6356 76.2358 17.6356V16.644C76.0612 16.644 75.8632 16.6983 75.7084 16.8531C75.5536 17.008 75.4992 17.2059 75.4992 17.3806H76.4909ZM76.2358 17.6356H80.5695V16.644H76.2358V17.6356ZM80.5695 17.6356C80.5454 17.6356 80.4678 17.6264 80.3957 17.5544C80.3237 17.4823 80.3145 17.4047 80.3145 17.3806H81.3061C81.3061 17.2059 81.2518 17.008 81.097 16.8531C80.9421 16.6983 80.7442 16.644 80.5695 16.644V17.6356ZM80.3145 17.3806V19.1261H81.3061V17.3806H80.3145ZM80.3145 19.1261C80.3145 19.3098 80.3787 19.6264 80.6788 19.7765C80.8453 19.8597 81.0302 19.8565 81.1875 19.7874C81.3319 19.724 81.43 19.617 81.4937 19.5215L80.6686 18.9714C80.6721 18.9662 80.7063 18.9157 80.7886 18.8795C80.8838 18.8377 81.0085 18.8326 81.1223 18.8895C81.2235 18.9401 81.2698 19.0159 81.2873 19.0544C81.3058 19.0952 81.3061 19.1223 81.3061 19.1261H80.3145ZM81.4767 19.5455C82.3349 18.4105 83.6731 17.5454 85.3547 17.5454V16.5537C83.3044 16.5537 81.6933 17.6147 80.6856 18.9474L81.4767 19.5455ZM85.3547 17.5454C86.5883 17.5454 87.5624 17.8212 88.3245 18.2946C89.0861 18.7676 89.6664 19.4568 90.0834 20.3324L90.9787 19.9061C90.4928 18.8857 89.7941 18.04 88.8478 17.4522C87.902 16.8647 86.7393 16.5537 85.3547 16.5537V17.5454ZM90.0876 20.341C90.1534 20.4727 90.2878 20.676 90.532 20.7511C90.6724 20.7943 90.8335 20.7874 90.9802 20.7091C91.1171 20.6361 91.1989 20.5243 91.2454 20.4313L90.3584 19.9878C90.3748 19.955 90.419 19.8845 90.5136 19.8341C90.618 19.7784 90.7321 19.7752 90.8236 19.8033C90.9043 19.8282 90.9488 19.8705 90.9631 19.8856C90.9792 19.9027 90.9809 19.9101 90.9746 19.8975L90.0876 20.341ZM91.2405 20.4408C92.0425 18.9198 93.8148 17.5454 95.9482 17.5454V16.5537C93.3868 16.5537 91.3069 18.1887 90.3633 19.9783L91.2405 20.4408ZM107.582 14.6577C106.381 14.6577 105.369 13.6458 105.369 12.4449H104.377C104.377 14.1935 105.833 15.6493 107.582 15.6493V14.6577ZM105.369 12.4449C105.369 11.2176 106.377 10.2322 107.582 10.2322V9.24054C105.837 9.24054 104.377 10.6628 104.377 12.4449H105.369ZM107.582 10.2322C108.813 10.2322 109.795 11.214 109.795 12.4449H110.786C110.786 10.6663 109.36 9.24054 107.582 9.24054V10.2322ZM109.795 12.4449C109.795 13.6494 108.809 14.6577 107.582 14.6577V15.6493C109.364 15.6493 110.786 14.1899 110.786 12.4449H109.795ZM105.67 17.3806C105.67 17.4047 105.661 17.4823 105.589 17.5544C105.517 17.6264 105.439 17.6356 105.415 17.6356V16.644C105.24 16.644 105.042 16.6983 104.887 16.8531C104.733 17.008 104.678 17.2059 104.678 17.3806H105.67ZM105.415 17.6356H109.749V16.644H105.415V17.6356ZM109.749 17.6356C109.724 17.6356 109.647 17.6264 109.575 17.5544C109.503 17.4823 109.494 17.4047 109.494 17.3806H110.485C110.485 17.2059 110.431 17.008 110.276 16.8531C110.121 16.6983 109.923 16.644 109.749 16.644V17.6356ZM109.494 17.3806V32.7592H110.485V17.3806H109.494ZM109.494 32.7592C109.494 32.7351 109.503 32.6575 109.575 32.5854C109.647 32.5134 109.724 32.5042 109.749 32.5042V33.4958C109.923 33.4958 110.121 33.4415 110.276 33.2867C110.431 33.1318 110.485 32.9339 110.485 32.7592H109.494ZM109.749 32.5042H105.415V33.4958H109.749V32.5042ZM105.415 32.5042C105.439 32.5042 105.517 32.5134 105.589 32.5854C105.661 32.6575 105.67 32.7351 105.67 32.7592H104.678C104.678 32.9339 104.733 33.1318 104.887 33.2867C105.042 33.4415 105.24 33.4958 105.415 33.4958V32.5042ZM105.67 32.7592V17.3806H104.678V32.7592H105.67ZM127.472 27.6731L127.593 27.1921L127.566 27.1854L127.538 27.1817L127.472 27.6731ZM127.593 28.0042L127.112 27.8839L127.106 27.9078L127.102 27.932L127.593 28.0042ZM127.593 22.1356L127.101 22.1997L127.105 22.2281L127.112 22.2559L127.593 22.1356ZM127.472 22.4968L127.538 22.9882L127.566 22.9845L127.593 22.9778L127.472 22.4968ZM123.44 23.0385L123.374 22.5471L123.366 22.5481L123.358 22.5494L123.44 23.0385ZM123.109 22.8579L123.59 22.7376L123.588 22.7296L123.585 22.7217L123.109 22.8579ZM123.109 27.312L122.638 27.1552L122.635 27.1641L123.109 27.312ZM123.44 27.1314L123.358 27.6205L123.366 27.6218L123.374 27.6228L123.44 27.1314ZM127.352 28.1542C127.169 28.1084 127.119 27.9622 127.113 27.9447C127.106 27.9195 127.107 27.9048 127.112 27.8839L128.074 28.1244C128.109 27.9832 128.11 27.818 128.065 27.6649C128.022 27.5195 127.896 27.268 127.593 27.1921L127.352 28.1542ZM127.102 27.932C126.837 29.7374 124.817 32.5945 120.46 32.5945V33.5861C125.313 33.5861 127.747 30.364 128.083 28.0763L127.102 27.932ZM120.46 32.5945C116.032 32.5945 113.071 29.259 113.071 25.0549H112.079C112.079 29.7589 115.438 33.5861 120.46 33.5861V32.5945ZM113.071 25.0549C113.071 20.8532 116.03 17.5454 120.46 17.5454V16.5537C115.441 16.5537 112.079 20.3483 112.079 25.0549H113.071ZM120.46 17.5454C124.824 17.5454 126.864 20.378 127.101 22.1997L128.085 22.0715C127.78 19.7401 125.306 16.5537 120.46 16.5537V17.5454ZM127.112 22.2559C127.109 22.2456 127.108 22.2389 127.108 22.2363C127.108 22.2348 127.108 22.2337 127.108 22.2332C127.108 22.2327 127.108 22.2324 127.108 22.2323C127.108 22.2323 127.108 22.2323 127.108 22.2322C127.108 22.2322 127.108 22.232 127.108 22.2316C127.108 22.2311 127.108 22.2285 127.11 22.2239C127.111 22.2185 127.119 22.1878 127.149 22.1482C127.181 22.1049 127.247 22.0421 127.352 22.0157L127.593 22.9778C127.926 22.8944 128.037 22.5967 128.069 22.4762C128.108 22.3284 128.11 22.1608 128.074 22.0154L127.112 22.2559ZM127.406 22.0053L123.374 22.5471L123.506 23.5299L127.538 22.9882L127.406 22.0053ZM123.358 22.5494C123.367 22.548 123.414 22.5441 123.473 22.5794C123.531 22.6145 123.573 22.6726 123.59 22.7376L122.628 22.9782C122.729 23.3834 123.122 23.5941 123.521 23.5276L123.358 22.5494ZM123.585 22.7217C123.416 22.1298 123.105 21.5295 122.603 21.0729C122.093 20.6087 121.409 20.3156 120.551 20.3156V21.3073C121.166 21.3073 121.611 21.5108 121.936 21.8064C122.269 22.1097 122.5 22.5326 122.632 22.9941L123.585 22.7217ZM120.551 20.3156C119.35 20.3156 118.409 20.839 117.787 21.722C117.178 22.5849 116.895 23.7574 116.895 25.0549H117.886C117.886 23.8844 118.145 22.9353 118.597 22.2934C119.035 21.6716 119.675 21.3073 120.551 21.3073V20.3156ZM116.895 25.0549C116.895 26.3523 117.178 27.5312 117.785 28.4008C118.406 29.2904 119.346 29.8242 120.551 29.8242V28.8325C119.678 28.8325 119.038 28.4635 118.598 27.8332C118.145 27.1831 117.886 26.2252 117.886 25.0549H116.895ZM120.551 29.8242C122.325 29.8242 123.245 28.5382 123.582 27.4599L122.635 27.1641C122.37 28.0119 121.726 28.8325 120.551 28.8325V29.8242ZM123.579 27.4688C123.592 27.4308 123.57 27.5267 123.451 27.5862C123.399 27.6121 123.356 27.6163 123.34 27.617C123.327 27.6175 123.33 27.6158 123.358 27.6205L123.521 26.6423C123.414 26.6245 123.21 26.5979 123.007 26.6992C122.783 26.8114 122.686 27.0126 122.638 27.1552L123.579 27.4688ZM123.374 27.6228L127.406 28.1646L127.538 27.1817L123.506 26.64L123.374 27.6228ZM152.583 11.7528L153.034 11.9593L153.039 11.9482L153.043 11.9369L152.583 11.7528ZM155.352 11.7528L154.891 11.9369L154.896 11.9479L154.901 11.9588L155.352 11.7528ZM164.892 32.6389L165.348 32.4435L165.343 32.4328L164.892 32.6389ZM160.016 32.7893L160.477 32.6052L160.471 32.5909L160.465 32.5771L160.016 32.7893ZM158.662 29.9303L158.202 30.1144L158.208 30.1287L158.214 30.1425L158.662 29.9303ZM149.212 29.9303L149.66 30.1425L149.667 30.1287L149.673 30.1144L149.212 29.9303ZM147.858 32.7893L147.41 32.5771L147.403 32.5909L147.398 32.6052L147.858 32.7893ZM143.013 32.6389L142.562 32.4322L142.557 32.4435L143.013 32.6389ZM151.469 24.8442L151.017 24.6408L151.014 24.6489L151.469 24.8442ZM156.435 24.8442L156.891 24.6489L156.888 24.6431L156.435 24.8442ZM154.178 19.7581L153.722 19.9534L153.725 19.9592L154.178 19.7581ZM153.757 19.7581L154.209 19.9615L154.212 19.9534L153.757 19.7581ZM153.043 11.9369C153.036 11.956 153.023 11.9761 153.007 11.994C152.99 12.0114 152.974 12.0226 152.962 12.0292C152.939 12.0411 152.931 12.0379 152.944 12.0379V11.0463C152.684 11.0463 152.288 11.1562 152.123 11.5686L153.043 11.9369ZM152.944 12.0379H154.991V11.0463H152.944V12.0379ZM154.991 12.0379C155.004 12.0379 154.995 12.0411 154.973 12.0292C154.961 12.0226 154.944 12.0114 154.928 11.994C154.911 11.9761 154.899 11.956 154.891 11.9369L155.812 11.5686C155.647 11.1562 155.251 11.0463 154.991 11.0463V12.0379ZM154.901 11.9588L164.441 32.8449L165.343 32.4328L155.803 11.5467L154.901 11.9588ZM164.436 32.8342C164.446 32.8572 164.401 32.7686 164.472 32.647C164.551 32.5127 164.673 32.5042 164.681 32.5042V33.4958C164.9 33.4958 165.173 33.4121 165.327 33.1498C165.474 32.9003 165.428 32.6312 165.348 32.4435L164.436 32.8342ZM164.681 32.5042H160.378V33.4958H164.681V32.5042ZM160.378 32.5042C160.364 32.5042 160.373 32.501 160.395 32.5129C160.408 32.5195 160.424 32.5306 160.44 32.5481C160.457 32.566 160.469 32.5861 160.477 32.6052L159.556 32.9735C159.721 33.3859 160.118 33.4958 160.378 33.4958V32.5042ZM160.465 32.5771L159.11 29.718L158.214 30.1425L159.568 33.0016L160.465 32.5771ZM159.123 29.7461C159.056 29.5808 158.944 29.4385 158.786 29.3433C158.633 29.2516 158.471 29.2238 158.331 29.2238V30.2155C158.342 30.2155 158.315 30.2177 158.275 30.1937C158.255 30.1817 158.238 30.1662 158.224 30.1493C158.21 30.1328 158.204 30.1195 158.202 30.1144L159.123 29.7461ZM158.331 29.2238H149.573V30.2155H158.331V29.2238ZM149.573 29.2238C149.313 29.2238 148.917 29.3337 148.752 29.7461L149.673 30.1144C149.665 30.1336 149.653 30.1536 149.636 30.1715C149.62 30.189 149.603 30.2001 149.591 30.2067C149.569 30.2186 149.56 30.2155 149.573 30.2155V29.2238ZM148.764 29.718L147.41 32.5771L148.306 33.0016L149.66 30.1425L148.764 29.718ZM147.398 32.6052C147.4 32.6001 147.406 32.5868 147.419 32.5703C147.433 32.5534 147.451 32.5379 147.471 32.5259C147.511 32.5019 147.538 32.5042 147.527 32.5042V33.4958C147.666 33.4958 147.829 33.468 147.981 33.3763C148.14 33.2811 148.252 33.1388 148.318 32.9735L147.398 32.6052ZM147.527 32.5042H143.223V33.4958H147.527V32.5042ZM143.223 32.5042C143.231 32.5042 143.353 32.5127 143.433 32.647C143.504 32.7686 143.459 32.8572 143.468 32.8342L142.557 32.4435C142.476 32.6312 142.431 32.9003 142.578 33.1498C142.732 33.4121 143.004 33.4958 143.223 33.4958V32.5042ZM143.463 32.8454L153.034 11.9593L152.132 11.5462L142.562 32.4323L143.463 32.8454ZM151.014 24.6489C150.933 24.8365 150.888 25.1057 151.035 25.3552C151.189 25.6174 151.461 25.7012 151.68 25.7012V24.7095C151.688 24.7095 151.81 24.718 151.889 24.8524C151.961 24.9739 151.915 25.0625 151.925 25.0395L151.014 24.6489ZM151.68 25.7012H156.224V24.7095H151.68V25.7012ZM156.224 25.7012C156.443 25.7012 156.716 25.6174 156.87 25.3552C157.017 25.1057 156.971 24.8365 156.891 24.6489L155.979 25.0395C155.989 25.0625 155.944 24.9739 156.015 24.8524C156.094 24.718 156.216 24.7095 156.224 24.7095V25.7012ZM156.888 24.6431L154.631 19.557L153.725 19.9592L155.982 25.0453L156.888 24.6431ZM154.634 19.5628C154.523 19.3049 154.279 19.1043 153.967 19.1043C153.656 19.1043 153.411 19.3049 153.301 19.5628L154.212 19.9534C154.192 20.0006 154.113 20.0959 153.967 20.0959C153.821 20.0959 153.742 20.0006 153.722 19.9534L154.634 19.5628ZM153.304 19.5547L151.017 24.6408L151.922 25.0475L154.209 19.9615L153.304 19.5547ZM176.056 18.8853L176.437 18.5678L176.427 18.5573L176.056 18.8853ZM176.056 31.2545L176.428 31.5827L176.437 31.5719L176.056 31.2545ZM176.357 27.8537L176.734 28.1752L176.852 28.0363V27.8537H176.357ZM176.357 22.2861H176.852V22.1035L176.734 21.9646L176.357 22.2861ZM172.173 32.5945C170.084 32.5945 168.534 31.6694 167.492 30.2765C166.439 28.8697 165.898 26.9708 165.898 25.0549H164.906C164.906 27.1416 165.493 29.2604 166.698 30.8706C167.913 32.4948 169.749 33.5861 172.173 33.5861V32.5945ZM165.898 25.0549C165.898 23.139 166.439 21.2482 167.491 19.8492C168.532 18.4642 170.083 17.5454 172.173 17.5454V16.5537C169.75 16.5537 167.914 17.6362 166.699 19.2532C165.493 20.8562 164.906 22.968 164.906 25.0549H165.898ZM172.173 17.5454C173.683 17.5454 174.85 18.2687 175.684 19.2134L176.427 18.5573C175.455 17.4554 174.035 16.5537 172.173 16.5537V17.5454ZM175.675 19.2028C175.79 19.3408 176.063 19.5761 176.419 19.4573C176.785 19.3355 176.852 18.9743 176.852 18.795H175.861C175.861 18.793 175.861 18.7543 175.889 18.6991C175.919 18.6395 175.986 18.5563 176.106 18.5165C176.224 18.4772 176.324 18.5033 176.376 18.5277C176.425 18.5505 176.442 18.5748 176.437 18.5679L175.675 19.2028ZM176.852 18.795V10.579H175.861V18.795H176.852ZM176.852 10.579C176.852 10.6032 176.843 10.6808 176.771 10.7528C176.699 10.8249 176.622 10.8341 176.597 10.8341V9.84245C176.423 9.84245 176.225 9.89679 176.07 10.0516C175.915 10.2065 175.861 10.4044 175.861 10.579H176.852ZM176.597 10.8341H180.931V9.84245H176.597V10.8341ZM180.931 10.8341C180.907 10.8341 180.829 10.8249 180.757 10.7528C180.685 10.6808 180.676 10.6032 180.676 10.579H181.668C181.668 10.4044 181.613 10.2065 181.459 10.0516C181.304 9.89679 181.106 9.84245 180.931 9.84245V10.8341ZM180.676 10.579V32.7592H181.668V10.579H180.676ZM180.676 32.7592C180.676 32.7351 180.685 32.6575 180.757 32.5854C180.829 32.5134 180.907 32.5042 180.931 32.5042V33.4958C181.106 33.4958 181.304 33.4415 181.459 33.2867C181.613 33.1318 181.668 32.9339 181.668 32.7592H180.676ZM180.931 32.5042H176.597V33.4958H180.931V32.5042ZM176.597 32.5042C176.622 32.5042 176.699 32.5134 176.771 32.5854C176.843 32.6575 176.852 32.7351 176.852 32.7592H175.861C175.861 32.9339 175.915 33.1318 176.07 33.2867C176.225 33.4415 176.423 33.4958 176.597 33.4958V32.5042ZM176.852 32.7592V31.3448H175.861V32.7592H176.852ZM176.852 31.3448C176.852 31.1655 176.785 30.8043 176.419 30.6825C176.063 30.5637 175.79 30.799 175.675 30.9371L176.437 31.5719C176.442 31.5651 176.425 31.5893 176.376 31.6121C176.324 31.6365 176.224 31.6626 176.106 31.6233C175.986 31.5835 175.919 31.5003 175.889 31.4407C175.861 31.3855 175.861 31.3468 175.861 31.3448H176.852ZM175.684 30.9264C174.85 31.8711 173.683 32.5945 172.173 32.5945V33.5861C174.035 33.5861 175.455 32.6844 176.427 31.5825L175.684 30.9264ZM173.498 20.3156C172.004 20.3156 171.032 21.062 170.459 22.039C169.903 22.9875 169.721 24.1451 169.721 25.0549H170.713C170.713 24.2492 170.878 23.285 171.315 22.5408C171.734 21.8249 172.403 21.3073 173.498 21.3073V20.3156ZM169.721 25.0549C169.721 25.9786 169.902 27.1437 170.459 28.0963C171.032 29.0776 172.004 29.8242 173.498 29.8242V28.8325C172.403 28.8325 171.735 28.3152 171.315 27.5961C170.878 26.8483 170.713 25.8766 170.713 25.0549H169.721ZM173.498 29.8242C175.027 29.8242 175.995 29.0431 176.734 28.1752L175.979 27.5322C175.334 28.2894 174.617 28.8325 173.498 28.8325V29.8242ZM176.852 27.8537V22.2861H175.861V27.8537H176.852ZM176.734 21.9646C175.995 21.0967 175.027 20.3156 173.498 20.3156V21.3073C174.617 21.3073 175.334 21.8504 175.979 22.6076L176.734 21.9646ZM210.34 24.2122H210.836V24.2031L210.836 24.1941L210.34 24.2122ZM189.424 19.2465L189.029 18.9474L189.02 18.9592L189.012 18.9714L189.424 19.2465ZM198.874 20.1192L198.426 20.3324L198.431 20.341L198.874 20.1192ZM199.145 20.2095L198.706 19.9782L198.701 19.9878L199.145 20.2095ZM204.291 17.5454C206.263 17.5454 207.583 18.2478 208.444 19.3843C209.325 20.5454 209.772 22.2198 209.845 24.2303L210.836 24.1941C210.759 22.0816 210.288 20.1746 209.235 18.7852C208.162 17.371 206.533 16.5537 204.291 16.5537V17.5454ZM209.845 24.2122V32.7592H210.836V24.2122H209.845ZM209.845 32.7592C209.845 32.7351 209.854 32.6575 209.926 32.5854C209.998 32.5134 210.075 32.5042 210.1 32.5042V33.4958C210.274 33.4958 210.472 33.4415 210.627 33.2867C210.782 33.1318 210.836 32.9339 210.836 32.7592H209.845ZM210.1 32.5042H205.766V33.4958H210.1V32.5042ZM205.766 32.5042C205.79 32.5042 205.868 32.5134 205.94 32.5854C206.012 32.6575 206.021 32.7351 206.021 32.7592H205.029C205.029 32.9339 205.084 33.1318 205.238 33.2867C205.393 33.4415 205.591 33.4958 205.766 33.4958V32.5042ZM206.021 32.7592V24.2122H205.029V32.7592H206.021ZM206.021 24.2122C206.021 23.0207 205.796 22.0354 205.238 21.3428C204.661 20.6279 203.805 20.3156 202.756 20.3156V21.3073C203.604 21.3073 204.132 21.5517 204.466 21.9654C204.818 22.4014 205.029 23.1164 205.029 24.2122H206.021ZM202.756 20.3156C201.632 20.3156 200.739 20.814 200.14 21.5771C199.548 22.3294 199.251 23.3229 199.251 24.3326H200.243C200.243 23.5064 200.487 22.7393 200.919 22.19C201.342 21.6515 201.954 21.3073 202.756 21.3073V20.3156ZM199.251 24.3326V32.7592H200.243V24.3326H199.251ZM199.251 32.7592C199.251 32.7351 199.26 32.6575 199.332 32.5854C199.404 32.5134 199.482 32.5042 199.506 32.5042V33.4958C199.681 33.4958 199.879 33.4415 200.034 33.2867C200.188 33.1318 200.243 32.9339 200.243 32.7592H199.251ZM199.506 32.5042H195.172V33.4958H199.506V32.5042ZM195.172 32.5042C195.197 32.5042 195.274 32.5134 195.346 32.5854C195.418 32.6575 195.427 32.7351 195.427 32.7592H194.436C194.436 32.9339 194.49 33.1318 194.645 33.2867C194.8 33.4415 194.998 33.4958 195.172 33.4958V32.5042ZM195.427 32.7592V24.2122H194.436V32.7592H195.427ZM195.427 24.2122C195.427 23.0207 195.203 22.0354 194.644 21.3428C194.068 20.6279 193.211 20.3156 192.163 20.3156V21.3073C193.011 21.3073 193.539 21.5517 193.872 21.9654C194.224 22.4014 194.436 23.1164 194.436 24.2122H195.427ZM192.163 20.3156C191.039 20.3156 190.146 20.814 189.546 21.5771C188.955 22.3294 188.658 23.3229 188.658 24.3326H189.649C189.649 23.5064 189.894 22.7393 190.326 22.19C190.749 21.6515 191.361 21.3073 192.163 21.3073V20.3156ZM188.658 24.3326V32.7592H189.649V24.3326H188.658ZM188.658 32.7592C188.658 32.7351 188.667 32.6575 188.739 32.5854C188.811 32.5134 188.888 32.5042 188.913 32.5042V33.4958C189.087 33.4958 189.285 33.4415 189.44 33.2867C189.595 33.1318 189.649 32.9339 189.649 32.7592H188.658ZM188.913 32.5042H184.579V33.4958H188.913V32.5042ZM184.579 32.5042C184.603 32.5042 184.681 32.5134 184.753 32.5854C184.825 32.6575 184.834 32.7351 184.834 32.7592H183.842C183.842 32.9339 183.897 33.1318 184.051 33.2867C184.206 33.4415 184.404 33.4958 184.579 33.4958V32.5042ZM184.834 32.7592V17.3806H183.842V32.7592H184.834ZM184.834 17.3806C184.834 17.4047 184.825 17.4823 184.753 17.5544C184.681 17.6264 184.603 17.6356 184.579 17.6356V16.644C184.404 16.644 184.206 16.6983 184.051 16.8531C183.897 17.008 183.842 17.2059 183.842 17.3806H184.834ZM184.579 17.6356H188.913V16.644H184.579V17.6356ZM188.913 17.6356C188.888 17.6356 188.811 17.6264 188.739 17.5544C188.667 17.4823 188.658 17.4047 188.658 17.3806H189.649C189.649 17.2059 189.595 17.008 189.44 16.8531C189.285 16.6983 189.087 16.644 188.913 16.644V17.6356ZM188.658 17.3806V19.1261H189.649V17.3806H188.658ZM188.658 19.1261C188.658 19.3098 188.722 19.6264 189.022 19.7765C189.188 19.8597 189.373 19.8565 189.531 19.7874C189.675 19.724 189.773 19.617 189.837 19.5215L189.012 18.9714C189.015 18.9662 189.049 18.9157 189.132 18.8795C189.227 18.8377 189.352 18.8326 189.465 18.8895C189.567 18.9401 189.613 19.0159 189.63 19.0544C189.649 19.0952 189.649 19.1223 189.649 19.1261H188.658ZM189.82 19.5455C190.678 18.4105 192.016 17.5454 193.698 17.5454V16.5537C191.647 16.5537 190.036 17.6147 189.029 18.9474L189.82 19.5455ZM193.698 17.5454C194.931 17.5454 195.905 17.8212 196.668 18.2946C197.429 18.7676 198.009 19.4568 198.426 20.3324L199.322 19.9061C198.836 18.8857 198.137 18.04 197.191 17.4522C196.245 16.8647 195.082 16.5537 193.698 16.5537V17.5454ZM198.431 20.341C198.496 20.4727 198.631 20.676 198.875 20.7511C199.015 20.7943 199.176 20.7874 199.323 20.7091C199.46 20.6361 199.542 20.5243 199.588 20.4313L198.701 19.9878C198.718 19.955 198.762 19.8845 198.857 19.8341C198.961 19.7784 199.075 19.7752 199.167 19.8033C199.247 19.8282 199.292 19.8705 199.306 19.8856C199.322 19.9027 199.324 19.9101 199.318 19.8975L198.431 20.341ZM199.584 20.4408C200.386 18.9198 202.158 17.5454 204.291 17.5454V16.5537C201.73 16.5537 199.65 18.1887 198.706 19.9783L199.584 20.4408ZM215.925 14.6577C214.724 14.6577 213.712 13.6458 213.712 12.4449H212.72C212.72 14.1935 214.176 15.6493 215.925 15.6493V14.6577ZM213.712 12.4449C213.712 11.2176 214.72 10.2322 215.925 10.2322V9.24054C214.18 9.24054 212.72 10.6628 212.72 12.4449H213.712ZM215.925 10.2322C217.156 10.2322 218.138 11.214 218.138 12.4449H219.129C219.129 10.6663 217.703 9.24054 215.925 9.24054V10.2322ZM218.138 12.4449C218.138 13.6494 217.152 14.6577 215.925 14.6577V15.6493C217.707 15.6493 219.129 14.1899 219.129 12.4449H218.138ZM214.013 17.3806C214.013 17.4047 214.004 17.4823 213.932 17.5544C213.86 17.6264 213.782 17.6356 213.758 17.6356V16.644C213.583 16.644 213.385 16.6983 213.231 16.8531C213.076 17.008 213.021 17.2059 213.021 17.3806H214.013ZM213.758 17.6356H218.092V16.644H213.758V17.6356ZM218.092 17.6356C218.067 17.6356 217.99 17.6264 217.918 17.5544C217.846 17.4823 217.837 17.4047 217.837 17.3806H218.828C218.828 17.2059 218.774 17.008 218.619 16.8531C218.464 16.6983 218.266 16.644 218.092 16.644V17.6356ZM217.837 17.3806V32.7592H218.828V17.3806H217.837ZM217.837 32.7592C217.837 32.7351 217.846 32.6575 217.918 32.5854C217.99 32.5134 218.067 32.5042 218.092 32.5042V33.4958C218.266 33.4958 218.464 33.4415 218.619 33.2867C218.774 33.1318 218.828 32.9339 218.828 32.7592H217.837ZM218.092 32.5042H213.758V33.4958H218.092V32.5042ZM213.758 32.5042C213.782 32.5042 213.86 32.5134 213.932 32.5854C214.004 32.6575 214.013 32.7351 214.013 32.7592H213.021C213.021 32.9339 213.076 33.1318 213.231 33.2867C213.385 33.4415 213.583 33.4958 213.758 33.4958V32.5042ZM214.013 32.7592V17.3806H213.021V32.7592H214.013ZM226.599 19.3067L226.218 18.9902L226.201 19.0101L226.187 19.0316L226.599 19.3067ZM226.328 23.9112L225.84 23.827L225.833 23.8688V23.9112H226.328ZM221.754 32.5042C221.778 32.5042 221.856 32.5134 221.928 32.5854C222 32.6575 222.009 32.7351 222.009 32.7592H221.017C221.017 32.9339 221.072 33.1318 221.227 33.2867C221.381 33.4415 221.579 33.4958 221.754 33.4958V32.5042ZM222.009 32.7592V17.3806H221.017V32.7592H222.009ZM222.009 17.3806C222.009 17.4047 222 17.4823 221.928 17.5544C221.856 17.6264 221.778 17.6356 221.754 17.6356V16.644C221.579 16.644 221.381 16.6983 221.227 16.8531C221.072 17.008 221.017 17.2059 221.017 17.3806H222.009ZM221.754 17.6356H226.088V16.644H221.754V17.6356ZM226.088 17.6356C226.064 17.6356 225.986 17.6264 225.914 17.5544C225.842 17.4823 225.833 17.4047 225.833 17.3806H226.824C226.824 17.2059 226.77 17.008 226.615 16.8531C226.46 16.6983 226.262 16.644 226.088 16.644V17.6356ZM225.833 17.3806V19.2164H226.824V17.3806H225.833ZM225.833 19.2164C225.833 19.3916 225.897 19.7483 226.252 19.8752C226.637 20.0125 226.911 19.7323 227.012 19.5817L226.187 19.0316C226.187 19.0308 226.212 18.9933 226.274 18.9603C226.343 18.9239 226.458 18.8956 226.586 18.9413C226.708 18.9852 226.772 19.072 226.799 19.1256C226.824 19.1778 226.824 19.2139 226.824 19.2164H225.833ZM226.981 19.6232C227.915 18.4971 229.704 17.5454 231.475 17.5454V16.5537C229.394 16.5537 227.33 17.6484 226.218 18.9902L226.981 19.6232ZM231.475 17.5454C233.202 17.5454 234.564 17.9836 235.499 18.9419C236.436 19.9026 237.028 21.4709 237.028 23.9112H238.02C238.02 21.3256 237.393 19.4631 236.208 18.2494C235.022 17.0333 233.359 16.5537 231.475 16.5537V17.5454ZM237.028 23.9112V32.7592H238.02V23.9112H237.028ZM237.028 32.7592C237.028 32.7351 237.037 32.6575 237.109 32.5854C237.181 32.5134 237.259 32.5042 237.283 32.5042V33.4958C237.458 33.4958 237.656 33.4415 237.811 33.2867C237.965 33.1318 238.02 32.9339 238.02 32.7592H237.028ZM237.283 32.5042H232.949V33.4958H237.283V32.5042ZM232.949 32.5042C232.974 32.5042 233.051 32.5134 233.123 32.5854C233.195 32.6575 233.204 32.7351 233.204 32.7592H232.213C232.213 32.9339 232.267 33.1318 232.422 33.2867C232.577 33.4415 232.775 33.4958 232.949 33.4958V32.5042ZM233.204 32.7592V24.2122H232.213V32.7592H233.204ZM233.204 24.2122C233.204 22.9618 232.892 21.9696 232.244 21.2895C231.592 20.6056 230.677 20.3156 229.639 20.3156V21.3073C230.497 21.3073 231.116 21.5439 231.526 21.9735C231.939 22.407 232.213 23.1152 232.213 24.2122H233.204ZM229.639 20.3156C227.625 20.3156 226.171 21.9046 225.84 23.827L226.817 23.9955C227.088 22.4269 228.222 21.3073 229.639 21.3073V20.3156ZM225.833 23.9112V32.7592H226.824V23.9112H225.833ZM225.833 32.7592C225.833 32.7351 225.842 32.6575 225.914 32.5854C225.986 32.5134 226.064 32.5042 226.088 32.5042V33.4958C226.262 33.4958 226.46 33.4415 226.615 33.2867C226.77 33.1318 226.824 32.9339 226.824 32.7592H225.833ZM226.088 32.5042H221.754V33.4958H226.088V32.5042Z" fill="white"/>
</g>
<defs>
<filter id="filter0_d_2814_718" x="0.194336" y="9.73633" width="241.329" height="33.2217" filterUnits="userSpaceOnUse" color-interpolation-filters="sRGB">
<feFlood flood-opacity="0" result="BackgroundImageFix"/>
<feColorMatrix in="SourceAlpha" type="matrix" values="0 0 0 0 0 0 0 0 0 0 0 0 0 0 0 0 0 0 127 0" result="hardAlpha"/>
<feOffset dy="4"/>
<feGaussianBlur stdDeviation="2"/>
<feComposite in2="hardAlpha" operator="out"/>
<feColorMatrix type="matrix" values="0 0 0 0 0 0 0 0 0 0 0 0 0 0 0 0 0 0 0.25 0"/>
<feBlend mode="normal" in2="BackgroundImageFix" result="effect1_dropShadow_2814_718"/>
<feBlend mode="normal" in="SourceGraphic" in2="effect1_dropShadow_2814_718" result="shape"/>
</filter>
</defs>
</svg>
