<svg width="252" height="45" viewBox="0 0 252 45" fill="none" xmlns="http://www.w3.org/2000/svg">
<g filter="url(#filter0_d_2814_718)">
<path d="M7 25.5479L11.7808 30.22C13.0397 31.4503 15.055 31.4358 16.296 30.1875L25.3389 21.0917C26.6494 19.7736 26.5682 17.6209 25.1621 16.4052L22.1117 13.7679C20.9304 12.7465 19.1851 12.7247 17.9786 13.7162L14.7493 16.3699C13.2688 17.5866 13.1789 19.8216 14.557 21.1532L23.9729 30.2518C25.231 31.4675 27.2314 31.4503 28.4685 30.2132L33.1338 25.5479" stroke="#6F5CE6" stroke-width="5.61156" stroke-linecap="round" stroke-linejoin="round"/>
<path d="M68.353 11.7227C68.4433 11.5722 68.5938 11.5421 68.7443 11.5421H71.2121C71.3927 11.5421 71.513 11.6625 71.513 11.843V32.699C71.513 32.8796 71.3927 33 71.2121 33H66.6978C66.5172 33 66.3969 32.8796 66.3969 32.699V23.8209C66.3969 23.5501 66.1862 23.4598 66.0357 23.6705L60.5885 31.6156C60.4681 31.7962 60.2875 31.7962 60.1671 31.6156L54.75 23.7006C54.5995 23.4899 54.3889 23.5501 54.3889 23.8209V32.699C54.3889 32.8796 54.2685 33 54.0879 33H49.5736C49.393 33 49.2727 32.8796 49.2727 32.699V11.843C49.2727 11.6625 49.393 11.5421 49.5736 11.5421H52.0414C52.1919 11.5421 52.3424 11.5722 52.4327 11.7227L60.1671 23.6103C60.2875 23.7909 60.4681 23.7909 60.5885 23.6103L68.353 11.7227ZM77.3996 15.1535C75.9249 15.1535 74.691 13.9196 74.691 12.4449C74.691 10.9402 75.9249 9.73637 77.3996 9.73637C78.9044 9.73637 80.1082 10.9402 80.1082 12.4449C80.1082 13.9196 78.9044 15.1535 77.3996 15.1535ZM74.992 17.3806C74.992 17.2301 75.0823 17.1398 75.2327 17.1398H79.5664C79.7169 17.1398 79.8072 17.2301 79.8072 17.3806V32.7592C79.8072 32.9097 79.7169 33 79.5664 33H75.2327C75.0823 33 74.992 32.9097 74.992 32.7592V17.3806ZM102.948 17.0495C107.162 17.0495 108.847 20.0891 108.997 24.2122V32.7592C108.997 32.9097 108.907 33 108.757 33H104.423C104.272 33 104.182 32.9097 104.182 32.7592V24.2122C104.182 21.9249 103.309 20.8114 101.413 20.8114C99.4873 20.8114 98.4038 22.4968 98.4038 24.3326V32.7592C98.4038 32.9097 98.3135 33 98.1631 33H93.8293C93.6789 33 93.5886 32.9097 93.5886 32.7592V24.2122C93.5886 21.9249 92.7158 20.8114 90.8198 20.8114C88.8937 20.8114 87.8103 22.4968 87.8103 24.3326V32.7592C87.8103 32.9097 87.72 33 87.5695 33H83.2358C83.0853 33 82.9951 32.9097 82.9951 32.7592V17.3806C82.9951 17.2301 83.0853 17.1398 83.2358 17.1398H87.5695C87.72 17.1398 87.8103 17.2301 87.8103 17.3806V19.1261C87.8103 19.3368 87.9608 19.427 88.0812 19.2465C89.0141 18.0126 90.4888 17.0495 92.3547 17.0495C94.973 17.0495 96.6282 18.2232 97.5311 20.1192C97.6213 20.2998 97.7417 20.3299 97.8019 20.2095C98.6747 18.5543 100.601 17.0495 102.948 17.0495ZM114.582 15.1535C113.107 15.1535 111.873 13.9196 111.873 12.4449C111.873 10.9402 113.107 9.73637 114.582 9.73637C116.087 9.73637 117.29 10.9402 117.29 12.4449C117.29 13.9196 116.087 15.1535 114.582 15.1535ZM112.174 17.3806C112.174 17.2301 112.264 17.1398 112.415 17.1398H116.749C116.899 17.1398 116.989 17.2301 116.989 17.3806V32.7592C116.989 32.9097 116.899 33 116.749 33H112.415C112.264 33 112.174 32.9097 112.174 32.7592V17.3806ZM134.472 27.6731C134.593 27.7032 134.623 27.8838 134.593 28.0042C134.292 30.0507 132.065 33.0903 127.46 33.0903C122.735 33.0903 119.575 29.509 119.575 25.0549C119.575 20.6008 122.735 17.0495 127.46 17.0495C132.065 17.0495 134.322 20.059 134.593 22.1356C134.623 22.256 134.593 22.4667 134.472 22.4968L130.44 23.0385C130.259 23.0686 130.139 22.9783 130.109 22.8579C129.808 21.8046 129.025 20.8114 127.551 20.8114C125.474 20.8114 124.391 22.587 124.391 25.0549C124.391 27.5227 125.474 29.3284 127.551 29.3284C129.025 29.3284 129.808 28.275 130.109 27.312C130.169 27.1314 130.259 27.1013 130.44 27.1314L134.472 27.6731ZM159.583 11.7528C159.643 11.6023 159.794 11.5421 159.944 11.5421H161.991C162.141 11.5421 162.292 11.6023 162.352 11.7528L171.892 32.6389C171.982 32.8495 171.892 33 171.681 33H167.378C167.227 33 167.077 32.9398 167.016 32.7893L165.662 29.9303C165.602 29.7798 165.482 29.7196 165.331 29.7196H156.573C156.423 29.7196 156.272 29.7798 156.212 29.9303L154.858 32.7893C154.798 32.9398 154.677 33 154.527 33H150.223C150.013 33 149.922 32.8495 150.013 32.6389L159.583 11.7528ZM158.469 24.8442C158.379 25.0549 158.469 25.2053 158.68 25.2053H163.224C163.435 25.2053 163.525 25.0549 163.435 24.8442L161.178 19.7581C161.088 19.5474 160.847 19.5474 160.757 19.7581L158.469 24.8442ZM179.173 33.0903C174.659 33.0903 172.402 29.0575 172.402 25.0549C172.402 21.0522 174.659 17.0495 179.173 17.0495C180.859 17.0495 182.153 17.8621 183.056 18.8853C183.206 19.0659 183.357 19.0057 183.357 18.795V10.579C183.357 10.4286 183.447 10.3383 183.597 10.3383H187.931C188.082 10.3383 188.172 10.4286 188.172 10.579V32.7592C188.172 32.9097 188.082 33 187.931 33H183.597C183.447 33 183.357 32.9097 183.357 32.7592V31.3448C183.357 31.1341 183.206 31.0739 183.056 31.2545C182.153 32.2777 180.859 33.0903 179.173 33.0903ZM180.498 20.8114C177.909 20.8114 177.217 23.3394 177.217 25.0549C177.217 26.8004 177.909 29.3284 180.498 29.3284C181.822 29.3284 182.664 28.6663 183.357 27.8537V22.2861C182.664 21.4735 181.822 20.8114 180.498 20.8114ZM211.291 17.0495C215.505 17.0495 217.19 20.0891 217.34 24.2122V32.7592C217.34 32.9097 217.25 33 217.1 33H212.766C212.615 33 212.525 32.9097 212.525 32.7592V24.2122C212.525 21.9249 211.652 20.8114 209.756 20.8114C207.83 20.8114 206.747 22.4968 206.747 24.3326V32.7592C206.747 32.9097 206.657 33 206.506 33H202.172C202.022 33 201.932 32.9097 201.932 32.7592V24.2122C201.932 21.9249 201.059 20.8114 199.163 20.8114C197.237 20.8114 196.153 22.4968 196.153 24.3326V32.7592C196.153 32.9097 196.063 33 195.913 33H191.579C191.428 33 191.338 32.9097 191.338 32.7592V17.3806C191.338 17.2301 191.428 17.1398 191.579 17.1398H195.913C196.063 17.1398 196.153 17.2301 196.153 17.3806V19.1261C196.153 19.3368 196.304 19.427 196.424 19.2465C197.357 18.0126 198.832 17.0495 200.698 17.0495C203.316 17.0495 204.971 18.2232 205.874 20.1192C205.964 20.2998 206.085 20.3299 206.145 20.2095C207.018 18.5543 208.944 17.0495 211.291 17.0495ZM222.925 15.1535C221.45 15.1535 220.216 13.9196 220.216 12.4449C220.216 10.9402 221.45 9.73637 222.925 9.73637C224.43 9.73637 225.633 10.9402 225.633 12.4449C225.633 13.9196 224.43 15.1535 222.925 15.1535ZM220.517 17.3806C220.517 17.2301 220.607 17.1398 220.758 17.1398H225.092C225.242 17.1398 225.332 17.2301 225.332 17.3806V32.7592C225.332 32.9097 225.242 33 225.092 33H220.758C220.607 33 220.517 32.9097 220.517 32.7592V17.3806ZM228.754 33C228.604 33 228.513 32.9097 228.513 32.7592V17.3806C228.513 17.2301 228.604 17.1398 228.754 17.1398H233.088C233.238 17.1398 233.328 17.2301 233.328 17.3806V19.2164C233.328 19.427 233.479 19.4872 233.599 19.3067C234.623 18.0728 236.549 17.0495 238.475 17.0495C242.086 17.0495 244.524 18.8853 244.524 23.9112V32.7592C244.524 32.9097 244.434 33 244.283 33H239.949C239.799 33 239.709 32.9097 239.709 32.7592V24.2122C239.709 21.8648 238.535 20.8114 236.639 20.8114C234.924 20.8114 233.629 22.1657 233.328 23.9112V32.7592C233.328 32.9097 233.238 33 233.088 33H228.754Z" fill="white"/>
<path d="M68.353 11.7227L68.7682 11.9938L68.7733 11.9859L68.7782 11.9778L68.353 11.7227ZM66.0357 23.6705L65.6322 23.3822L65.6268 23.3901L66.0357 23.6705ZM60.5885 31.6156L60.1795 31.3352L60.1759 31.3406L60.5885 31.6156ZM60.1671 31.6156L60.5797 31.3406L60.5763 31.3356L60.1671 31.6156ZM54.75 23.7006L55.1593 23.4205L55.1535 23.4124L54.75 23.7006ZM52.4327 11.7227L52.0075 11.9778L52.0121 11.9855L52.0171 11.9931L52.4327 11.7227ZM60.1671 23.6103L59.7515 23.8807L59.7546 23.8853L60.1671 23.6103ZM60.5885 23.6103L61.001 23.8853L61.0036 23.8814L60.5885 23.6103ZM68.7782 11.9778C68.7726 11.9871 68.7621 12.0007 68.7461 12.0139C68.7304 12.0268 68.7155 12.0343 68.7058 12.0381C68.697 12.0415 68.6944 12.0411 68.7016 12.0401C68.709 12.0391 68.7224 12.0379 68.7443 12.0379V11.0463C68.5428 11.0463 68.1568 11.086 67.9279 11.4676L68.7782 11.9778ZM68.7443 12.0379H71.2121V11.0463H68.7443V12.0379ZM71.2121 12.0379C71.1897 12.0379 71.1325 12.0283 71.0797 11.9755C71.0268 11.9226 71.0172 11.8654 71.0172 11.843H72.0089C72.0089 11.6401 71.9391 11.4324 71.7809 11.2742C71.6227 11.1161 71.4151 11.0463 71.2121 11.0463V12.0379ZM71.0172 11.843V32.699H72.0089V11.843H71.0172ZM71.0172 32.699C71.0172 32.6767 71.0268 32.6195 71.0797 32.5666C71.1325 32.5138 71.1897 32.5042 71.2121 32.5042V33.4958C71.4151 33.4958 71.6227 33.426 71.7809 33.2678C71.9391 33.1097 72.0089 32.902 72.0089 32.699H71.0172ZM71.2121 32.5042H66.6978V33.4958H71.2121V32.5042ZM66.6978 32.5042C66.7202 32.5042 66.7774 32.5138 66.8302 32.5666C66.8831 32.6195 66.8927 32.6767 66.8927 32.699H65.901C65.901 32.902 65.9708 33.1097 66.129 33.2678C66.2872 33.426 66.4948 33.4958 66.6978 33.4958V32.5042ZM66.8927 32.699V23.8209H65.901V32.699H66.8927ZM66.8927 23.8209C66.8927 23.5839 66.7964 23.2476 66.4651 23.1082C66.096 22.9528 65.781 23.1741 65.6322 23.3823L66.4392 23.9587C66.4371 23.9615 66.4103 23.9982 66.3452 24.0252C66.2739 24.0547 66.1764 24.0626 66.0803 24.0221C65.892 23.9428 65.901 23.7871 65.901 23.8209H66.8927ZM65.6268 23.3901L60.1795 31.3352L60.9974 31.896L66.4447 23.9509L65.6268 23.3901ZM60.1759 31.3406C60.1768 31.3392 60.1904 31.3192 60.224 31.298C60.2596 31.2755 60.3128 31.2552 60.3778 31.2552C60.4428 31.2552 60.496 31.2755 60.5316 31.298C60.5652 31.3192 60.5788 31.3392 60.5797 31.3406L59.7546 31.8907C59.8748 32.071 60.0865 32.2469 60.3778 32.2469C60.6691 32.2469 60.8808 32.071 61.001 31.8907L60.1759 31.3406ZM60.5763 31.3356L55.1592 23.4205L54.3408 23.9806L59.758 31.8957L60.5763 31.3356ZM55.1535 23.4124C55.0191 23.2242 54.7303 22.9916 54.3637 23.1074C53.9921 23.2247 53.893 23.5871 53.893 23.8209H54.8847C54.8847 23.7839 54.8909 23.9808 54.6623 24.053C54.5584 24.0858 54.468 24.0648 54.4145 24.0389C54.3887 24.0265 54.3713 24.0131 54.3612 24.0041C54.351 23.9951 54.3467 23.989 54.3465 23.9888L55.1535 23.4124ZM53.893 23.8209V32.699H54.8847V23.8209H53.893ZM53.893 32.699C53.893 32.6767 53.9026 32.6195 53.9555 32.5666C54.0083 32.5138 54.0655 32.5042 54.0879 32.5042V33.4958C54.2909 33.4958 54.4985 33.426 54.6567 33.2678C54.8149 33.1097 54.8847 32.902 54.8847 32.699H53.893ZM54.0879 32.5042H49.5736V33.4958H54.0879V32.5042ZM49.5736 32.5042C49.596 32.5042 49.6532 32.5138 49.706 32.5666C49.7589 32.6195 49.7685 32.6767 49.7685 32.699H48.7768C48.7768 32.902 48.8466 33.1097 49.0048 33.2678C49.163 33.426 49.3706 33.4958 49.5736 33.4958V32.5042ZM49.7685 32.699V11.843H48.7768V32.699H49.7685ZM49.7685 11.843C49.7685 11.8654 49.7589 11.9226 49.706 11.9755C49.6532 12.0283 49.596 12.0379 49.5736 12.0379V11.0463C49.3706 11.0463 49.163 11.1161 49.0048 11.2742C48.8466 11.4324 48.7768 11.6401 48.7768 11.843H49.7685ZM49.5736 12.0379H52.0414V11.0463H49.5736V12.0379ZM52.0414 12.0379C52.0633 12.0379 52.0767 12.0391 52.0841 12.0401C52.0913 12.0411 52.0887 12.0415 52.0799 12.0381C52.0702 12.0343 52.0553 12.0268 52.0396 12.0139C52.0236 12.0007 52.0131 11.9871 52.0075 11.9778L52.8578 11.4676C52.6289 11.086 52.2429 11.0463 52.0414 11.0463V12.0379ZM52.0171 11.9931L59.7515 23.8807L60.5827 23.3399L52.8483 11.4523L52.0171 11.9931ZM59.7546 23.8853C59.8748 24.0657 60.0865 24.2415 60.3778 24.2415C60.6691 24.2415 60.8808 24.0657 61.001 23.8853L60.1759 23.3352C60.1768 23.3339 60.1904 23.3139 60.224 23.2926C60.2596 23.2701 60.3128 23.2499 60.3778 23.2499C60.4428 23.2499 60.496 23.2701 60.5316 23.2926C60.5652 23.3139 60.5788 23.3339 60.5797 23.3352L59.7546 23.8853ZM61.0036 23.8814L68.7682 11.9938L67.9379 11.4515L60.1733 23.3391L61.0036 23.8814ZM77.3996 14.6577C76.1988 14.6577 75.1869 13.6458 75.1869 12.4449H74.1952C74.1952 14.1935 75.6511 15.6493 77.3996 15.6493V14.6577ZM75.1869 12.4449C75.1869 11.2176 76.1952 10.2322 77.3996 10.2322V9.24054C75.6547 9.24054 74.1952 10.6628 74.1952 12.4449H75.1869ZM77.3996 10.2322C78.6305 10.2322 79.6123 11.214 79.6123 12.4449H80.604C80.604 10.6663 79.1782 9.24054 77.3996 9.24054V10.2322ZM79.6123 12.4449C79.6123 13.6494 78.6269 14.6577 77.3996 14.6577V15.6493C79.1818 15.6493 80.604 14.1899 80.604 12.4449H79.6123ZM75.4878 17.3806C75.4878 17.4047 75.4786 17.4823 75.4065 17.5544C75.3345 17.6264 75.2569 17.6356 75.2327 17.6356V16.644C75.0581 16.644 74.8602 16.6983 74.7053 16.8531C74.5505 17.008 74.4961 17.2059 74.4961 17.3806H75.4878ZM75.2327 17.6356H79.5664V16.644H75.2327V17.6356ZM79.5664 17.6356C79.5423 17.6356 79.4647 17.6264 79.3927 17.5544C79.3206 17.4823 79.3114 17.4047 79.3114 17.3806H80.303C80.303 17.2059 80.2487 17.008 80.0939 16.8531C79.939 16.6983 79.7411 16.644 79.5664 16.644V17.6356ZM79.3114 17.3806V32.7592H80.303V17.3806H79.3114ZM79.3114 32.7592C79.3114 32.7351 79.3206 32.6575 79.3927 32.5854C79.4647 32.5134 79.5423 32.5042 79.5664 32.5042V33.4958C79.7411 33.4958 79.939 33.4415 80.0939 33.2867C80.2487 33.1318 80.303 32.9339 80.303 32.7592H79.3114ZM79.5664 32.5042H75.2327V33.4958H79.5664V32.5042ZM75.2327 32.5042C75.2569 32.5042 75.3345 32.5134 75.4065 32.5854C75.4786 32.6575 75.4878 32.7351 75.4878 32.7592H74.4961C74.4961 32.9339 74.5505 33.1318 74.7053 33.2867C74.8602 33.4415 75.0581 33.4958 75.2327 33.4958V32.5042ZM75.4878 32.7592V17.3806H74.4961V32.7592H75.4878ZM108.997 24.2122H109.493V24.2031L109.493 24.1941L108.997 24.2122ZM88.0812 19.2465L87.6856 18.9474L87.6768 18.9592L87.6686 18.9714L88.0812 19.2465ZM97.5311 20.1192L97.0833 20.3324L97.0876 20.341L97.5311 20.1192ZM97.8019 20.2095L97.3632 19.9782L97.3584 19.9878L97.8019 20.2095ZM102.948 17.5454C104.92 17.5454 106.24 18.2478 107.101 19.3843C107.982 20.5454 108.428 22.2198 108.502 24.2303L109.493 24.1941C109.416 22.0816 108.945 20.1746 107.891 18.7852C106.819 17.371 105.19 16.5537 102.948 16.5537V17.5454ZM108.502 24.2122V32.7592H109.493V24.2122H108.502ZM108.502 32.7592C108.502 32.7351 108.511 32.6575 108.583 32.5854C108.655 32.5134 108.732 32.5042 108.757 32.5042V33.4958C108.931 33.4958 109.129 33.4415 109.284 33.2867C109.439 33.1318 109.493 32.9339 109.493 32.7592H108.502ZM108.757 32.5042H104.423V33.4958H108.757V32.5042ZM104.423 32.5042C104.447 32.5042 104.525 32.5134 104.597 32.5854C104.669 32.6575 104.678 32.7351 104.678 32.7592H103.686C103.686 32.9339 103.741 33.1318 103.895 33.2867C104.05 33.4415 104.248 33.4958 104.423 33.4958V32.5042ZM104.678 32.7592V24.2122H103.686V32.7592H104.678ZM104.678 24.2122C104.678 23.0207 104.453 22.0354 103.895 21.3428C103.318 20.6279 102.462 20.3156 101.413 20.3156V21.3073C102.261 21.3073 102.789 21.5517 103.123 21.9654C103.474 22.4014 103.686 23.1164 103.686 24.2122H104.678ZM101.413 20.3156C100.289 20.3156 99.3964 20.814 98.7965 21.5771C98.2051 22.3294 97.908 23.3229 97.908 24.3326H98.8997C98.8997 23.5064 99.1443 22.7393 99.5761 22.19C99.9994 21.6515 100.611 21.3073 101.413 21.3073V20.3156ZM97.908 24.3326V32.7592H98.8997V24.3326H97.908ZM97.908 32.7592C97.908 32.7351 97.9172 32.6575 97.9893 32.5854C98.0613 32.5134 98.1389 32.5042 98.1631 32.5042V33.4958C98.3377 33.4958 98.5356 33.4415 98.6905 33.2867C98.8453 33.1318 98.8997 32.9339 98.8997 32.7592H97.908ZM98.1631 32.5042H93.8293V33.4958H98.1631V32.5042ZM93.8293 32.5042C93.8535 32.5042 93.9311 32.5134 94.0031 32.5854C94.0752 32.6575 94.0844 32.7351 94.0844 32.7592H93.0928C93.0928 32.9339 93.1471 33.1318 93.3019 33.2867C93.4568 33.4415 93.6547 33.4958 93.8293 33.4958V32.5042ZM94.0844 32.7592V24.2122H93.0928V32.7592H94.0844ZM94.0844 24.2122C94.0844 23.0207 93.8598 22.0354 93.3011 21.3428C92.7245 20.6279 91.868 20.3156 90.8198 20.3156V21.3073C91.6676 21.3073 92.1955 21.5517 92.5293 21.9654C92.881 22.4014 93.0928 23.1164 93.0928 24.2122H94.0844ZM90.8198 20.3156C89.6957 20.3156 88.8029 20.814 88.203 21.5771C87.6116 22.3294 87.3145 23.3229 87.3145 24.3326H88.3061C88.3061 23.5064 88.5507 22.7393 88.9826 22.19C89.4059 21.6515 90.0179 21.3073 90.8198 21.3073V20.3156ZM87.3145 24.3326V32.7592H88.3061V24.3326H87.3145ZM87.3145 32.7592C87.3145 32.7351 87.3237 32.6575 87.3957 32.5854C87.4678 32.5134 87.5454 32.5042 87.5695 32.5042V33.4958C87.7442 33.4958 87.9421 33.4415 88.097 33.2867C88.2518 33.1318 88.3061 32.9339 88.3061 32.7592H87.3145ZM87.5695 32.5042H83.2358V33.4958H87.5695V32.5042ZM83.2358 32.5042C83.26 32.5042 83.3375 32.5134 83.4096 32.5854C83.4817 32.6575 83.4909 32.7351 83.4909 32.7592H82.4992C82.4992 32.9339 82.5536 33.1318 82.7084 33.2867C82.8632 33.4415 83.0612 33.4958 83.2358 33.4958V32.5042ZM83.4909 32.7592V17.3806H82.4992V32.7592H83.4909ZM83.4909 17.3806C83.4909 17.4047 83.4817 17.4823 83.4096 17.5544C83.3375 17.6264 83.26 17.6356 83.2358 17.6356V16.644C83.0612 16.644 82.8632 16.6983 82.7084 16.8531C82.5536 17.008 82.4992 17.2059 82.4992 17.3806H83.4909ZM83.2358 17.6356H87.5695V16.644H83.2358V17.6356ZM87.5695 17.6356C87.5454 17.6356 87.4678 17.6264 87.3957 17.5544C87.3237 17.4823 87.3145 17.4047 87.3145 17.3806H88.3061C88.3061 17.2059 88.2518 17.008 88.097 16.8531C87.9421 16.6983 87.7442 16.644 87.5695 16.644V17.6356ZM87.3145 17.3806V19.1261H88.3061V17.3806H87.3145ZM87.3145 19.1261C87.3145 19.3098 87.3787 19.6264 87.6788 19.7765C87.8453 19.8597 88.0302 19.8565 88.1875 19.7874C88.3319 19.724 88.43 19.617 88.4937 19.5215L87.6686 18.9714C87.6721 18.9662 87.7063 18.9157 87.7886 18.8795C87.8838 18.8377 88.0085 18.8326 88.1223 18.8895C88.2235 18.9401 88.2698 19.0159 88.2873 19.0544C88.3058 19.0952 88.3061 19.1223 88.3061 19.1261H87.3145ZM88.4767 19.5455C89.3349 18.4105 90.6731 17.5454 92.3547 17.5454V16.5537C90.3044 16.5537 88.6933 17.6147 87.6856 18.9474L88.4767 19.5455ZM92.3547 17.5454C93.5883 17.5454 94.5624 17.8212 95.3245 18.2946C96.0861 18.7676 96.6664 19.4568 97.0834 20.3324L97.9787 19.9061C97.4928 18.8857 96.7941 18.04 95.8478 17.4522C94.902 16.8647 93.7393 16.5537 92.3547 16.5537V17.5454ZM97.0876 20.341C97.1534 20.4727 97.2878 20.676 97.532 20.7511C97.6724 20.7943 97.8335 20.7874 97.9802 20.7091C98.1171 20.6361 98.1989 20.5243 98.2454 20.4313L97.3584 19.9878C97.3748 19.955 97.419 19.8845 97.5136 19.8341C97.618 19.7784 97.7321 19.7752 97.8236 19.8033C97.9043 19.8282 97.9488 19.8705 97.9631 19.8856C97.9792 19.9027 97.9809 19.9101 97.9746 19.8975L97.0876 20.341ZM98.2405 20.4408C99.0425 18.9198 100.815 17.5454 102.948 17.5454V16.5537C100.387 16.5537 98.3069 18.1887 97.3633 19.9783L98.2405 20.4408ZM114.582 14.6577C113.381 14.6577 112.369 13.6458 112.369 12.4449H111.377C111.377 14.1935 112.833 15.6493 114.582 15.6493V14.6577ZM112.369 12.4449C112.369 11.2176 113.377 10.2322 114.582 10.2322V9.24054C112.837 9.24054 111.377 10.6628 111.377 12.4449H112.369ZM114.582 10.2322C115.813 10.2322 116.795 11.214 116.795 12.4449H117.786C117.786 10.6663 116.36 9.24054 114.582 9.24054V10.2322ZM116.795 12.4449C116.795 13.6494 115.809 14.6577 114.582 14.6577V15.6493C116.364 15.6493 117.786 14.1899 117.786 12.4449H116.795ZM112.67 17.3806C112.67 17.4047 112.661 17.4823 112.589 17.5544C112.517 17.6264 112.439 17.6356 112.415 17.6356V16.644C112.24 16.644 112.042 16.6983 111.887 16.8531C111.733 17.008 111.678 17.2059 111.678 17.3806H112.67ZM112.415 17.6356H116.749V16.644H112.415V17.6356ZM116.749 17.6356C116.724 17.6356 116.647 17.6264 116.575 17.5544C116.503 17.4823 116.494 17.4047 116.494 17.3806H117.485C117.485 17.2059 117.431 17.008 117.276 16.8531C117.121 16.6983 116.923 16.644 116.749 16.644V17.6356ZM116.494 17.3806V32.7592H117.485V17.3806H116.494ZM116.494 32.7592C116.494 32.7351 116.503 32.6575 116.575 32.5854C116.647 32.5134 116.724 32.5042 116.749 32.5042V33.4958C116.923 33.4958 117.121 33.4415 117.276 33.2867C117.431 33.1318 117.485 32.9339 117.485 32.7592H116.494ZM116.749 32.5042H112.415V33.4958H116.749V32.5042ZM112.415 32.5042C112.439 32.5042 112.517 32.5134 112.589 32.5854C112.661 32.6575 112.67 32.7351 112.67 32.7592H111.678C111.678 32.9339 111.733 33.1318 111.887 33.2867C112.042 33.4415 112.24 33.4958 112.415 33.4958V32.5042ZM112.67 32.7592V17.3806H111.678V32.7592H112.67ZM134.472 27.6731L134.593 27.1921L134.566 27.1854L134.538 27.1817L134.472 27.6731ZM134.593 28.0042L134.112 27.8839L134.106 27.9078L134.102 27.932L134.593 28.0042ZM134.593 22.1356L134.101 22.1997L134.105 22.2281L134.112 22.2559L134.593 22.1356ZM134.472 22.4968L134.538 22.9882L134.566 22.9845L134.593 22.9778L134.472 22.4968ZM130.44 23.0385L130.374 22.5471L130.366 22.5481L130.358 22.5494L130.44 23.0385ZM130.109 22.8579L130.59 22.7376L130.588 22.7296L130.585 22.7217L130.109 22.8579ZM130.109 27.312L129.638 27.1552L129.635 27.1641L130.109 27.312ZM130.44 27.1314L130.358 27.6205L130.366 27.6218L130.374 27.6228L130.44 27.1314ZM134.352 28.1542C134.169 28.1084 134.119 27.9622 134.113 27.9447C134.106 27.9195 134.107 27.9048 134.112 27.8839L135.074 28.1244C135.109 27.9832 135.11 27.818 135.065 27.6649C135.022 27.5195 134.896 27.268 134.593 27.1921L134.352 28.1542ZM134.102 27.932C133.837 29.7374 131.817 32.5945 127.46 32.5945V33.5861C132.313 33.5861 134.747 30.364 135.083 28.0763L134.102 27.932ZM127.46 32.5945C123.032 32.5945 120.071 29.259 120.071 25.0549H119.079C119.079 29.7589 122.438 33.5861 127.46 33.5861V32.5945ZM120.071 25.0549C120.071 20.8532 123.03 17.5454 127.46 17.5454V16.5537C122.441 16.5537 119.079 20.3483 119.079 25.0549H120.071ZM127.46 17.5454C131.824 17.5454 133.864 20.378 134.101 22.1997L135.085 22.0715C134.78 19.7401 132.306 16.5537 127.46 16.5537V17.5454ZM134.112 22.2559C134.109 22.2456 134.108 22.2389 134.108 22.2363C134.108 22.2348 134.108 22.2337 134.108 22.2332C134.108 22.2327 134.108 22.2324 134.108 22.2323C134.108 22.2323 134.108 22.2323 134.108 22.2322C134.108 22.2322 134.108 22.232 134.108 22.2316C134.108 22.2311 134.108 22.2285 134.11 22.2239C134.111 22.2185 134.119 22.1878 134.149 22.1482C134.181 22.1049 134.247 22.0421 134.352 22.0157L134.593 22.9778C134.926 22.8944 135.037 22.5967 135.069 22.4762C135.108 22.3284 135.11 22.1608 135.074 22.0154L134.112 22.2559ZM134.406 22.0053L130.374 22.5471L130.506 23.5299L134.538 22.9882L134.406 22.0053ZM130.358 22.5494C130.367 22.548 130.414 22.5441 130.473 22.5794C130.531 22.6145 130.573 22.6726 130.59 22.7376L129.628 22.9782C129.729 23.3834 130.122 23.5941 130.521 23.5276L130.358 22.5494ZM130.585 22.7217C130.416 22.1298 130.105 21.5295 129.603 21.0729C129.093 20.6087 128.409 20.3156 127.551 20.3156V21.3073C128.166 21.3073 128.611 21.5108 128.936 21.8064C129.269 22.1097 129.5 22.5326 129.632 22.9941L130.585 22.7217ZM127.551 20.3156C126.35 20.3156 125.409 20.839 124.787 21.722C124.178 22.5849 123.895 23.7574 123.895 25.0549H124.886C124.886 23.8844 125.145 22.9353 125.597 22.2934C126.035 21.6716 126.675 21.3073 127.551 21.3073V20.3156ZM123.895 25.0549C123.895 26.3523 124.178 27.5312 124.785 28.4008C125.406 29.2904 126.346 29.8242 127.551 29.8242V28.8325C126.678 28.8325 126.038 28.4635 125.598 27.8332C125.145 27.1831 124.886 26.2252 124.886 25.0549H123.895ZM127.551 29.8242C129.325 29.8242 130.245 28.5382 130.582 27.4599L129.635 27.1641C129.37 28.0119 128.726 28.8325 127.551 28.8325V29.8242ZM130.579 27.4688C130.592 27.4308 130.57 27.5267 130.451 27.5862C130.399 27.6121 130.356 27.6163 130.34 27.617C130.327 27.6175 130.33 27.6158 130.358 27.6205L130.521 26.6423C130.414 26.6245 130.21 26.5979 130.007 26.6992C129.783 26.8114 129.686 27.0126 129.638 27.1552L130.579 27.4688ZM130.374 27.6228L134.406 28.1646L134.538 27.1817L130.506 26.64L130.374 27.6228ZM159.583 11.7528L160.034 11.9593L160.039 11.9482L160.043 11.9369L159.583 11.7528ZM162.352 11.7528L161.891 11.9369L161.896 11.9479L161.901 11.9588L162.352 11.7528ZM171.892 32.6389L172.348 32.4435L172.343 32.4328L171.892 32.6389ZM167.016 32.7893L167.477 32.6052L167.471 32.5909L167.465 32.5771L167.016 32.7893ZM165.662 29.9303L165.202 30.1144L165.208 30.1287L165.214 30.1425L165.662 29.9303ZM156.212 29.9303L156.66 30.1425L156.667 30.1287L156.673 30.1144L156.212 29.9303ZM154.858 32.7893L154.41 32.5771L154.403 32.5909L154.398 32.6052L154.858 32.7893ZM150.013 32.6389L149.562 32.4322L149.557 32.4435L150.013 32.6389ZM158.469 24.8442L158.017 24.6408L158.014 24.6489L158.469 24.8442ZM163.435 24.8442L163.891 24.6489L163.888 24.6431L163.435 24.8442ZM161.178 19.7581L160.722 19.9534L160.725 19.9592L161.178 19.7581ZM160.757 19.7581L161.209 19.9615L161.212 19.9534L160.757 19.7581ZM160.043 11.9369C160.036 11.956 160.023 11.9761 160.007 11.994C159.99 12.0114 159.974 12.0226 159.962 12.0292C159.939 12.0411 159.931 12.0379 159.944 12.0379V11.0463C159.684 11.0463 159.288 11.1562 159.123 11.5686L160.043 11.9369ZM159.944 12.0379H161.991V11.0463H159.944V12.0379ZM161.991 12.0379C162.004 12.0379 161.995 12.0411 161.973 12.0292C161.961 12.0226 161.944 12.0114 161.928 11.994C161.911 11.9761 161.899 11.956 161.891 11.9369L162.812 11.5686C162.647 11.1562 162.251 11.0463 161.991 11.0463V12.0379ZM161.901 11.9588L171.441 32.8449L172.343 32.4328L162.803 11.5467L161.901 11.9588ZM171.436 32.8342C171.446 32.8572 171.401 32.7686 171.472 32.647C171.551 32.5127 171.673 32.5042 171.681 32.5042V33.4958C171.9 33.4958 172.173 33.4121 172.327 33.1498C172.474 32.9003 172.428 32.6312 172.348 32.4435L171.436 32.8342ZM171.681 32.5042H167.378V33.4958H171.681V32.5042ZM167.378 32.5042C167.364 32.5042 167.373 32.501 167.395 32.5129C167.408 32.5195 167.424 32.5306 167.44 32.5481C167.457 32.566 167.469 32.5861 167.477 32.6052L166.556 32.9735C166.721 33.3859 167.118 33.4958 167.378 33.4958V32.5042ZM167.465 32.5771L166.11 29.718L165.214 30.1425L166.568 33.0016L167.465 32.5771ZM166.123 29.7461C166.056 29.5808 165.944 29.4385 165.786 29.3433C165.633 29.2516 165.471 29.2238 165.331 29.2238V30.2155C165.342 30.2155 165.315 30.2177 165.275 30.1937C165.255 30.1817 165.238 30.1662 165.224 30.1493C165.21 30.1328 165.204 30.1195 165.202 30.1144L166.123 29.7461ZM165.331 29.2238H156.573V30.2155H165.331V29.2238ZM156.573 29.2238C156.313 29.2238 155.917 29.3337 155.752 29.7461L156.673 30.1144C156.665 30.1336 156.653 30.1536 156.636 30.1715C156.62 30.189 156.603 30.2001 156.591 30.2067C156.569 30.2186 156.56 30.2155 156.573 30.2155V29.2238ZM155.764 29.718L154.41 32.5771L155.306 33.0016L156.66 30.1425L155.764 29.718ZM154.398 32.6052C154.4 32.6001 154.406 32.5868 154.419 32.5703C154.433 32.5534 154.451 32.5379 154.471 32.5259C154.511 32.5019 154.538 32.5042 154.527 32.5042V33.4958C154.666 33.4958 154.829 33.468 154.981 33.3763C155.14 33.2811 155.252 33.1388 155.318 32.9735L154.398 32.6052ZM154.527 32.5042H150.223V33.4958H154.527V32.5042ZM150.223 32.5042C150.231 32.5042 150.353 32.5127 150.433 32.647C150.504 32.7686 150.459 32.8572 150.468 32.8342L149.557 32.4435C149.476 32.6312 149.431 32.9003 149.578 33.1498C149.732 33.4121 150.004 33.4958 150.223 33.4958V32.5042ZM150.463 32.8454L160.034 11.9593L159.132 11.5462L149.562 32.4323L150.463 32.8454ZM158.014 24.6489C157.933 24.8365 157.888 25.1057 158.035 25.3552C158.189 25.6174 158.461 25.7012 158.68 25.7012V24.7095C158.688 24.7095 158.81 24.718 158.889 24.8524C158.961 24.9739 158.915 25.0625 158.925 25.0395L158.014 24.6489ZM158.68 25.7012H163.224V24.7095H158.68V25.7012ZM163.224 25.7012C163.443 25.7012 163.716 25.6174 163.87 25.3552C164.017 25.1057 163.971 24.8365 163.891 24.6489L162.979 25.0395C162.989 25.0625 162.944 24.9739 163.015 24.8524C163.094 24.718 163.216 24.7095 163.224 24.7095V25.7012ZM163.888 24.6431L161.631 19.557L160.725 19.9592L162.982 25.0453L163.888 24.6431ZM161.634 19.5628C161.523 19.3049 161.279 19.1043 160.967 19.1043C160.656 19.1043 160.411 19.3049 160.301 19.5628L161.212 19.9534C161.192 20.0006 161.113 20.0959 160.967 20.0959C160.821 20.0959 160.742 20.0006 160.722 19.9534L161.634 19.5628ZM160.304 19.5547L158.017 24.6408L158.922 25.0475L161.209 19.9615L160.304 19.5547ZM183.056 18.8853L183.437 18.5678L183.427 18.5573L183.056 18.8853ZM183.056 31.2545L183.428 31.5827L183.437 31.5719L183.056 31.2545ZM183.357 27.8537L183.734 28.1752L183.852 28.0363V27.8537H183.357ZM183.357 22.2861H183.852V22.1035L183.734 21.9646L183.357 22.2861ZM179.173 32.5945C177.084 32.5945 175.534 31.6694 174.492 30.2765C173.439 28.8697 172.898 26.9708 172.898 25.0549H171.906C171.906 27.1416 172.493 29.2604 173.698 30.8706C174.913 32.4948 176.749 33.5861 179.173 33.5861V32.5945ZM172.898 25.0549C172.898 23.139 173.439 21.2482 174.491 19.8492C175.532 18.4642 177.083 17.5454 179.173 17.5454V16.5537C176.75 16.5537 174.914 17.6362 173.699 19.2532C172.493 20.8562 171.906 22.968 171.906 25.0549H172.898ZM179.173 17.5454C180.683 17.5454 181.85 18.2687 182.684 19.2134L183.427 18.5573C182.455 17.4554 181.035 16.5537 179.173 16.5537V17.5454ZM182.675 19.2028C182.79 19.3408 183.063 19.5761 183.419 19.4573C183.785 19.3355 183.852 18.9743 183.852 18.795H182.861C182.861 18.793 182.861 18.7543 182.889 18.6991C182.919 18.6395 182.986 18.5563 183.106 18.5165C183.224 18.4772 183.324 18.5033 183.376 18.5277C183.425 18.5505 183.442 18.5748 183.437 18.5679L182.675 19.2028ZM183.852 18.795V10.579H182.861V18.795H183.852ZM183.852 10.579C183.852 10.6032 183.843 10.6808 183.771 10.7528C183.699 10.8249 183.622 10.8341 183.597 10.8341V9.84245C183.423 9.84245 183.225 9.89679 183.07 10.0516C182.915 10.2065 182.861 10.4044 182.861 10.579H183.852ZM183.597 10.8341H187.931V9.84245H183.597V10.8341ZM187.931 10.8341C187.907 10.8341 187.829 10.8249 187.757 10.7528C187.685 10.6808 187.676 10.6032 187.676 10.579H188.668C188.668 10.4044 188.613 10.2065 188.459 10.0516C188.304 9.89679 188.106 9.84245 187.931 9.84245V10.8341ZM187.676 10.579V32.7592H188.668V10.579H187.676ZM187.676 32.7592C187.676 32.7351 187.685 32.6575 187.757 32.5854C187.829 32.5134 187.907 32.5042 187.931 32.5042V33.4958C188.106 33.4958 188.304 33.4415 188.459 33.2867C188.613 33.1318 188.668 32.9339 188.668 32.7592H187.676ZM187.931 32.5042H183.597V33.4958H187.931V32.5042ZM183.597 32.5042C183.622 32.5042 183.699 32.5134 183.771 32.5854C183.843 32.6575 183.852 32.7351 183.852 32.7592H182.861C182.861 32.9339 182.915 33.1318 183.07 33.2867C183.225 33.4415 183.423 33.4958 183.597 33.4958V32.5042ZM183.852 32.7592V31.3448H182.861V32.7592H183.852ZM183.852 31.3448C183.852 31.1655 183.785 30.8043 183.419 30.6825C183.063 30.5637 182.79 30.799 182.675 30.9371L183.437 31.5719C183.442 31.5651 183.425 31.5893 183.376 31.6121C183.324 31.6365 183.224 31.6626 183.106 31.6233C182.986 31.5835 182.919 31.5003 182.889 31.4407C182.861 31.3855 182.861 31.3468 182.861 31.3448H183.852ZM182.684 30.9264C181.85 31.8711 180.683 32.5945 179.173 32.5945V33.5861C181.035 33.5861 182.455 32.6844 183.427 31.5825L182.684 30.9264ZM180.498 20.3156C179.004 20.3156 178.032 21.062 177.459 22.039C176.903 22.9875 176.721 24.1451 176.721 25.0549H177.713C177.713 24.2492 177.878 23.285 178.315 22.5408C178.734 21.8249 179.403 21.3073 180.498 21.3073V20.3156ZM176.721 25.0549C176.721 25.9786 176.902 27.1437 177.459 28.0963C178.032 29.0776 179.004 29.8242 180.498 29.8242V28.8325C179.403 28.8325 178.735 28.3152 178.315 27.5961C177.878 26.8483 177.713 25.8766 177.713 25.0549H176.721ZM180.498 29.8242C182.027 29.8242 182.995 29.0431 183.734 28.1752L182.979 27.5322C182.334 28.2894 181.617 28.8325 180.498 28.8325V29.8242ZM183.852 27.8537V22.2861H182.861V27.8537H183.852ZM183.734 21.9646C182.995 21.0967 182.027 20.3156 180.498 20.3156V21.3073C181.617 21.3073 182.334 21.8504 182.979 22.6076L183.734 21.9646ZM217.34 24.2122H217.836V24.2031L217.836 24.1941L217.34 24.2122ZM196.424 19.2465L196.029 18.9474L196.02 18.9592L196.012 18.9714L196.424 19.2465ZM205.874 20.1192L205.426 20.3324L205.431 20.341L205.874 20.1192ZM206.145 20.2095L205.706 19.9782L205.701 19.9878L206.145 20.2095ZM211.291 17.5454C213.263 17.5454 214.583 18.2478 215.444 19.3843C216.325 20.5454 216.772 22.2198 216.845 24.2303L217.836 24.1941C217.759 22.0816 217.288 20.1746 216.235 18.7852C215.162 17.371 213.533 16.5537 211.291 16.5537V17.5454ZM216.845 24.2122V32.7592H217.836V24.2122H216.845ZM216.845 32.7592C216.845 32.7351 216.854 32.6575 216.926 32.5854C216.998 32.5134 217.075 32.5042 217.1 32.5042V33.4958C217.274 33.4958 217.472 33.4415 217.627 33.2867C217.782 33.1318 217.836 32.9339 217.836 32.7592H216.845ZM217.1 32.5042H212.766V33.4958H217.1V32.5042ZM212.766 32.5042C212.79 32.5042 212.868 32.5134 212.94 32.5854C213.012 32.6575 213.021 32.7351 213.021 32.7592H212.029C212.029 32.9339 212.084 33.1318 212.238 33.2867C212.393 33.4415 212.591 33.4958 212.766 33.4958V32.5042ZM213.021 32.7592V24.2122H212.029V32.7592H213.021ZM213.021 24.2122C213.021 23.0207 212.796 22.0354 212.238 21.3428C211.661 20.6279 210.805 20.3156 209.756 20.3156V21.3073C210.604 21.3073 211.132 21.5517 211.466 21.9654C211.818 22.4014 212.029 23.1164 212.029 24.2122H213.021ZM209.756 20.3156C208.632 20.3156 207.739 20.814 207.14 21.5771C206.548 22.3294 206.251 23.3229 206.251 24.3326H207.243C207.243 23.5064 207.487 22.7393 207.919 22.19C208.342 21.6515 208.954 21.3073 209.756 21.3073V20.3156ZM206.251 24.3326V32.7592H207.243V24.3326H206.251ZM206.251 32.7592C206.251 32.7351 206.26 32.6575 206.332 32.5854C206.404 32.5134 206.482 32.5042 206.506 32.5042V33.4958C206.681 33.4958 206.879 33.4415 207.034 33.2867C207.188 33.1318 207.243 32.9339 207.243 32.7592H206.251ZM206.506 32.5042H202.172V33.4958H206.506V32.5042ZM202.172 32.5042C202.197 32.5042 202.274 32.5134 202.346 32.5854C202.418 32.6575 202.427 32.7351 202.427 32.7592H201.436C201.436 32.9339 201.49 33.1318 201.645 33.2867C201.8 33.4415 201.998 33.4958 202.172 33.4958V32.5042ZM202.427 32.7592V24.2122H201.436V32.7592H202.427ZM202.427 24.2122C202.427 23.0207 202.203 22.0354 201.644 21.3428C201.068 20.6279 200.211 20.3156 199.163 20.3156V21.3073C200.011 21.3073 200.539 21.5517 200.872 21.9654C201.224 22.4014 201.436 23.1164 201.436 24.2122H202.427ZM199.163 20.3156C198.039 20.3156 197.146 20.814 196.546 21.5771C195.955 22.3294 195.658 23.3229 195.658 24.3326H196.649C196.649 23.5064 196.894 22.7393 197.326 22.19C197.749 21.6515 198.361 21.3073 199.163 21.3073V20.3156ZM195.658 24.3326V32.7592H196.649V24.3326H195.658ZM195.658 32.7592C195.658 32.7351 195.667 32.6575 195.739 32.5854C195.811 32.5134 195.888 32.5042 195.913 32.5042V33.4958C196.087 33.4958 196.285 33.4415 196.44 33.2867C196.595 33.1318 196.649 32.9339 196.649 32.7592H195.658ZM195.913 32.5042H191.579V33.4958H195.913V32.5042ZM191.579 32.5042C191.603 32.5042 191.681 32.5134 191.753 32.5854C191.825 32.6575 191.834 32.7351 191.834 32.7592H190.842C190.842 32.9339 190.897 33.1318 191.051 33.2867C191.206 33.4415 191.404 33.4958 191.579 33.4958V32.5042ZM191.834 32.7592V17.3806H190.842V32.7592H191.834ZM191.834 17.3806C191.834 17.4047 191.825 17.4823 191.753 17.5544C191.681 17.6264 191.603 17.6356 191.579 17.6356V16.644C191.404 16.644 191.206 16.6983 191.051 16.8531C190.897 17.008 190.842 17.2059 190.842 17.3806H191.834ZM191.579 17.6356H195.913V16.644H191.579V17.6356ZM195.913 17.6356C195.888 17.6356 195.811 17.6264 195.739 17.5544C195.667 17.4823 195.658 17.4047 195.658 17.3806H196.649C196.649 17.2059 196.595 17.008 196.44 16.8531C196.285 16.6983 196.087 16.644 195.913 16.644V17.6356ZM195.658 17.3806V19.1261H196.649V17.3806H195.658ZM195.658 19.1261C195.658 19.3098 195.722 19.6264 196.022 19.7765C196.188 19.8597 196.373 19.8565 196.531 19.7874C196.675 19.724 196.773 19.617 196.837 19.5215L196.012 18.9714C196.015 18.9662 196.049 18.9157 196.132 18.8795C196.227 18.8377 196.352 18.8326 196.465 18.8895C196.567 18.9401 196.613 19.0159 196.63 19.0544C196.649 19.0952 196.649 19.1223 196.649 19.1261H195.658ZM196.82 19.5455C197.678 18.4105 199.016 17.5454 200.698 17.5454V16.5537C198.647 16.5537 197.036 17.6147 196.029 18.9474L196.82 19.5455ZM200.698 17.5454C201.931 17.5454 202.905 17.8212 203.668 18.2946C204.429 18.7676 205.009 19.4568 205.426 20.3324L206.322 19.9061C205.836 18.8857 205.137 18.04 204.191 17.4522C203.245 16.8647 202.082 16.5537 200.698 16.5537V17.5454ZM205.431 20.341C205.496 20.4727 205.631 20.676 205.875 20.7511C206.015 20.7943 206.176 20.7874 206.323 20.7091C206.46 20.6361 206.542 20.5243 206.588 20.4313L205.701 19.9878C205.718 19.955 205.762 19.8845 205.857 19.8341C205.961 19.7784 206.075 19.7752 206.167 19.8033C206.247 19.8282 206.292 19.8705 206.306 19.8856C206.322 19.9027 206.324 19.9101 206.318 19.8975L205.431 20.341ZM206.584 20.4408C207.386 18.9198 209.158 17.5454 211.291 17.5454V16.5537C208.73 16.5537 206.65 18.1887 205.706 19.9783L206.584 20.4408ZM222.925 14.6577C221.724 14.6577 220.712 13.6458 220.712 12.4449H219.72C219.72 14.1935 221.176 15.6493 222.925 15.6493V14.6577ZM220.712 12.4449C220.712 11.2176 221.72 10.2322 222.925 10.2322V9.24054C221.18 9.24054 219.72 10.6628 219.72 12.4449H220.712ZM222.925 10.2322C224.156 10.2322 225.138 11.214 225.138 12.4449H226.129C226.129 10.6663 224.703 9.24054 222.925 9.24054V10.2322ZM225.138 12.4449C225.138 13.6494 224.152 14.6577 222.925 14.6577V15.6493C224.707 15.6493 226.129 14.1899 226.129 12.4449H225.138ZM221.013 17.3806C221.013 17.4047 221.004 17.4823 220.932 17.5544C220.86 17.6264 220.782 17.6356 220.758 17.6356V16.644C220.583 16.644 220.385 16.6983 220.231 16.8531C220.076 17.008 220.021 17.2059 220.021 17.3806H221.013ZM220.758 17.6356H225.092V16.644H220.758V17.6356ZM225.092 17.6356C225.067 17.6356 224.99 17.6264 224.918 17.5544C224.846 17.4823 224.837 17.4047 224.837 17.3806H225.828C225.828 17.2059 225.774 17.008 225.619 16.8531C225.464 16.6983 225.266 16.644 225.092 16.644V17.6356ZM224.837 17.3806V32.7592H225.828V17.3806H224.837ZM224.837 32.7592C224.837 32.7351 224.846 32.6575 224.918 32.5854C224.99 32.5134 225.067 32.5042 225.092 32.5042V33.4958C225.266 33.4958 225.464 33.4415 225.619 33.2867C225.774 33.1318 225.828 32.9339 225.828 32.7592H224.837ZM225.092 32.5042H220.758V33.4958H225.092V32.5042ZM220.758 32.5042C220.782 32.5042 220.86 32.5134 220.932 32.5854C221.004 32.6575 221.013 32.7351 221.013 32.7592H220.021C220.021 32.9339 220.076 33.1318 220.231 33.2867C220.385 33.4415 220.583 33.4958 220.758 33.4958V32.5042ZM221.013 32.7592V17.3806H220.021V32.7592H221.013ZM233.599 19.3067L233.218 18.9902L233.201 19.0101L233.187 19.0316L233.599 19.3067ZM233.328 23.9112L232.84 23.827L232.833 23.8688V23.9112H233.328ZM228.754 32.5042C228.778 32.5042 228.856 32.5134 228.928 32.5854C229 32.6575 229.009 32.7351 229.009 32.7592H228.017C228.017 32.9339 228.072 33.1318 228.227 33.2867C228.381 33.4415 228.579 33.4958 228.754 33.4958V32.5042ZM229.009 32.7592V17.3806H228.017V32.7592H229.009ZM229.009 17.3806C229.009 17.4047 229 17.4823 228.928 17.5544C228.856 17.6264 228.778 17.6356 228.754 17.6356V16.644C228.579 16.644 228.381 16.6983 228.227 16.8531C228.072 17.008 228.017 17.2059 228.017 17.3806H229.009ZM228.754 17.6356H233.088V16.644H228.754V17.6356ZM233.088 17.6356C233.064 17.6356 232.986 17.6264 232.914 17.5544C232.842 17.4823 232.833 17.4047 232.833 17.3806H233.824C233.824 17.2059 233.77 17.008 233.615 16.8531C233.46 16.6983 233.262 16.644 233.088 16.644V17.6356ZM232.833 17.3806V19.2164H233.824V17.3806H232.833ZM232.833 19.2164C232.833 19.3916 232.897 19.7483 233.252 19.8752C233.637 20.0125 233.911 19.7323 234.012 19.5817L233.187 19.0316C233.187 19.0308 233.212 18.9933 233.274 18.9603C233.343 18.9239 233.458 18.8956 233.586 18.9413C233.708 18.9852 233.772 19.072 233.799 19.1256C233.824 19.1778 233.824 19.2139 233.824 19.2164H232.833ZM233.981 19.6232C234.915 18.4971 236.704 17.5454 238.475 17.5454V16.5537C236.394 16.5537 234.33 17.6484 233.218 18.9902L233.981 19.6232ZM238.475 17.5454C240.202 17.5454 241.564 17.9836 242.499 18.9419C243.436 19.9026 244.028 21.4709 244.028 23.9112H245.02C245.02 21.3256 244.393 19.4631 243.208 18.2494C242.022 17.0333 240.359 16.5537 238.475 16.5537V17.5454ZM244.028 23.9112V32.7592H245.02V23.9112H244.028ZM244.028 32.7592C244.028 32.7351 244.037 32.6575 244.109 32.5854C244.181 32.5134 244.259 32.5042 244.283 32.5042V33.4958C244.458 33.4958 244.656 33.4415 244.811 33.2867C244.965 33.1318 245.02 32.9339 245.02 32.7592H244.028ZM244.283 32.5042H239.949V33.4958H244.283V32.5042ZM239.949 32.5042C239.974 32.5042 240.051 32.5134 240.123 32.5854C240.195 32.6575 240.204 32.7351 240.204 32.7592H239.213C239.213 32.9339 239.267 33.1318 239.422 33.2867C239.577 33.4415 239.775 33.4958 239.949 33.4958V32.5042ZM240.204 32.7592V24.2122H239.213V32.7592H240.204ZM240.204 24.2122C240.204 22.9618 239.892 21.9696 239.244 21.2895C238.592 20.6056 237.677 20.3156 236.639 20.3156V21.3073C237.497 21.3073 238.116 21.5439 238.526 21.9735C238.939 22.407 239.213 23.1152 239.213 24.2122H240.204ZM236.639 20.3156C234.625 20.3156 233.171 21.9046 232.84 23.827L233.817 23.9955C234.088 22.4269 235.222 21.3073 236.639 21.3073V20.3156ZM232.833 23.9112V32.7592H233.824V23.9112H232.833ZM232.833 32.7592C232.833 32.7351 232.842 32.6575 232.914 32.5854C232.986 32.5134 233.064 32.5042 233.088 32.5042V33.4958C233.262 33.4958 233.46 33.4415 233.615 33.2867C233.77 33.1318 233.824 32.9339 233.824 32.7592H232.833ZM233.088 32.5042H228.754V33.4958H233.088V32.5042Z" fill="white"/>
</g>
<defs>
<filter id="filter0_d_2814_718" x="0.194336" y="9.73633" width="248.329" height="32.2217" filterUnits="userSpaceOnUse" color-interpolation-filters="sRGB">
<feFlood flood-opacity="0" result="BackgroundImageFix"/>
<feColorMatrix in="SourceAlpha" type="matrix" values="0 0 0 0 0 0 0 0 0 0 0 0 0 0 0 0 0 0 127 0" result="hardAlpha"/>
<feOffset dy="4"/>
<feGaussianBlur stdDeviation="2"/>
<feComposite in2="hardAlpha" operator="out"/>
<feColorMatrix type="matrix" values="0 0 0 0 0 0 0 0 0 0 0 0 0 0 0 0 0 0 0.25 0"/>
<feBlend mode="normal" in2="BackgroundImageFix" result="effect1_dropShadow_2814_718"/>
<feBlend mode="normal" in="SourceGraphic" in2="effect1_dropShadow_2814_718" result="shape"/>
</filter>
</defs>
</svg>
